<svg width="24" height="24" viewBox="0 0 24 24" fill="none" xmlns="http://www.w3.org/2000/svg">
<path d="M9.30015 7.63365C9.67009 6.69565 10.9976 6.69565 11.3675 7.63365L12.5139 10.5404C12.6269 10.8268 12.8536 11.0535 13.14 11.1664L16.0467 12.3128C16.9847 12.6828 16.9847 14.0103 16.0467 14.3802L13.14 15.5266C12.8536 15.6396 12.6269 15.8663 12.5139 16.1527L11.3675 19.0594C10.9976 19.9974 9.67009 19.9974 9.30015 19.0594L8.15374 16.1527C8.04079 15.8663 7.81411 15.6396 7.52773 15.5266L4.62096 14.3802C3.68296 14.0103 3.68296 12.6828 4.62096 12.3128L7.52773 11.1664C7.81411 11.0535 8.04079 10.8268 8.15374 10.5404L9.30015 7.63365Z" fill="#5F5548"/>
<path d="M16.2433 3.31048C16.4283 2.84148 17.092 2.84148 17.277 3.31048L17.9288 4.96309C17.9852 5.10628 18.0986 5.21962 18.2418 5.27609L19.8944 5.92787C20.3634 6.11284 20.3634 6.77659 19.8944 6.96156L18.2418 7.61334C18.0986 7.66982 17.9852 7.78316 17.9288 7.92635L17.277 9.57896C17.092 10.048 16.4283 10.048 16.2433 9.57896L15.5915 7.92635C15.535 7.78316 15.4217 7.66982 15.2785 7.61334L13.6259 6.96156C13.1569 6.77659 13.1569 6.11284 13.6259 5.92787L15.2785 5.27609C15.4217 5.21962 15.535 5.10628 15.5915 4.96309L16.2433 3.31048Z" fill="#5F5548"/>
</svg>
