<svg width="360" height="277" viewBox="0 0 360 277" fill="none" xmlns="http://www.w3.org/2000/svg">
<path d="M164.376 64.592V65.968H158.904V68.4H157.176V65.968H151.448V64.592H164.376ZM153.016 71.12V67.216H154.744V69.712H162.936V71.12H153.016ZM153.144 63.472V57.712H154.84V59.312H160.952V57.712H162.68V63.472H153.144ZM154.84 62.096H160.952V60.592H154.84V62.096ZM170.428 59.504C170.412 61.312 171.548 63.056 173.724 63.76L172.796 65.136C171.26 64.592 170.172 63.52 169.564 62.176C168.94 63.664 167.804 64.816 166.172 65.424L165.244 64.016C167.532 63.248 168.668 61.408 168.668 59.408V58H170.428V59.504ZM167.484 67.728V66.352H177.116V71.376H175.388V67.728H167.484ZM172.572 61.424V60.016H175.388V57.264H177.116V65.648H175.388V61.424H172.572ZM195.813 63.76V65.136H190.213V66.352C192.741 66.496 194.245 67.376 194.245 68.848C194.245 70.464 192.405 71.376 189.349 71.376C186.277 71.376 184.437 70.464 184.421 68.848C184.437 67.376 185.941 66.496 188.517 66.336V65.136H182.949V63.76H195.813ZM183.557 61.744C186.165 61.504 187.861 60.432 188.149 59.28H184.101V57.904H194.661V59.28H190.581C190.853 60.448 192.549 61.504 195.205 61.744L194.597 63.12C192.021 62.848 190.117 61.824 189.365 60.384C188.597 61.824 186.725 62.848 184.165 63.12L183.557 61.744ZM186.213 68.848C186.197 69.616 187.301 70.048 189.349 70.032C191.381 70.048 192.501 69.616 192.517 68.848C192.501 68.064 191.381 67.648 189.349 67.632C187.301 67.648 186.197 68.064 186.213 68.848ZM198.473 70.128C197.817 70.128 197.257 69.584 197.257 68.912C197.257 68.256 197.817 67.712 198.473 67.696C199.129 67.712 199.689 68.256 199.689 68.912C199.689 69.584 199.129 70.128 198.473 70.128ZM202.832 70.128C202.176 70.128 201.616 69.584 201.616 68.912C201.616 68.256 202.176 67.712 202.832 67.696C203.488 67.712 204.048 68.256 204.048 68.912C204.048 69.584 203.488 70.128 202.832 70.128Z" fill="#816E57"/>
<g filter="url(#filter0_di_205_3293)">
<mask id="path-3-outside-1_205_3293" maskUnits="userSpaceOnUse" x="106.284" y="92" width="147" height="126" fill="black">
<rect fill="white" x="106.284" y="92" width="147" height="126"/>
<path d="M178.992 95C187.416 95.0001 195.789 101.008 202.324 109.864C205.976 108.458 209.603 107.85 213.04 108.268V108.256C227.709 110.022 238.638 130.217 239.39 150.658C241.823 149.337 243.753 148.322 245.803 147.704C254.438 145.1 251.88 160.404 236.632 173.811C230.593 197.464 207.105 215.098 179.282 215.098C150.676 215.097 126.844 196.62 121.527 172.128C107.925 159.161 105.923 145.209 114.198 147.704C115.819 148.193 117.365 148.93 119.145 149.871C120.149 129.71 130.984 110.01 145.46 108.268C148.772 107.862 152.26 108.411 155.773 109.71C162.295 100.937 170.569 95 178.992 95Z"/>
</mask>
<path d="M178.992 95C187.416 95.0001 195.789 101.008 202.324 109.864C205.976 108.458 209.603 107.85 213.04 108.268V108.256C227.709 110.022 238.638 130.217 239.39 150.658C241.823 149.337 243.753 148.322 245.803 147.704C254.438 145.1 251.88 160.404 236.632 173.811C230.593 197.464 207.105 215.098 179.282 215.098C150.676 215.097 126.844 196.62 121.527 172.128C107.925 159.161 105.923 145.209 114.198 147.704C115.819 148.193 117.365 148.93 119.145 149.871C120.149 129.71 130.984 110.01 145.46 108.268C148.772 107.862 152.26 108.411 155.773 109.71C162.295 100.937 170.569 95 178.992 95Z" fill="url(#paint0_linear_205_3293)"/>
<path d="M178.992 95L178.992 92.48H178.992V95ZM202.324 109.864L200.297 111.36L201.437 112.906L203.23 112.216L202.324 109.864ZM213.04 108.268L212.737 110.769L215.56 111.112V108.268H213.04ZM213.04 108.256L213.342 105.754L210.52 105.414V108.256H213.04ZM239.39 150.658L236.872 150.751L237.021 154.813L240.593 152.873L239.39 150.658ZM245.803 147.704L245.075 145.291V145.291L245.803 147.704ZM236.632 173.811L234.968 171.918L234.383 172.432L234.19 173.187L236.632 173.811ZM179.282 215.098L179.282 217.618H179.282V215.098ZM121.527 172.128L123.989 171.593L123.825 170.838L123.265 170.304L121.527 172.128ZM114.198 147.704L114.925 145.291L114.925 145.291L114.198 147.704ZM119.145 149.871L117.967 152.099L121.465 153.948L121.662 149.996L119.145 149.871ZM145.46 108.268L145.761 110.77L145.766 110.769L145.46 108.268ZM155.773 109.71L154.899 112.073L156.669 112.728L157.795 111.213L155.773 109.71ZM178.992 95L178.992 97.52C186.234 97.5201 193.952 102.762 200.297 111.36L202.324 109.864L204.352 108.368C197.627 99.2535 188.598 92.4801 178.992 92.48L178.992 95ZM202.324 109.864L203.23 112.216C206.596 110.919 209.802 110.413 212.737 110.769L213.04 108.268L213.344 105.766C209.403 105.288 205.356 105.996 201.419 107.513L202.324 109.864ZM213.04 108.268H215.56V108.256H213.04H210.52V108.268H213.04ZM213.04 108.256L212.739 110.758C218.981 111.509 224.811 116.257 229.269 123.743C233.694 131.174 236.51 140.914 236.872 150.751L239.39 150.658L241.908 150.566C241.518 139.96 238.494 129.383 233.599 121.164C228.737 113.001 221.768 106.768 213.342 105.754L213.04 108.256ZM239.39 150.658L240.593 152.873C243.053 151.536 244.766 150.649 246.531 150.117L245.803 147.704L245.075 145.291C242.741 145.996 240.592 147.137 238.187 148.444L239.39 150.658ZM245.803 147.704L246.531 150.117C247.327 149.877 247.729 149.927 247.859 149.962C247.918 149.978 247.927 149.978 247.973 150.057C248.184 150.423 248.432 151.655 247.749 154.067C246.449 158.655 242.335 165.441 234.968 171.918L236.632 173.811L238.296 175.703C246.177 168.774 250.966 161.204 252.598 155.44C253.381 152.676 253.603 149.732 252.341 147.542C251.65 146.343 250.562 145.47 249.168 145.095C247.845 144.739 246.438 144.881 245.075 145.291L245.803 147.704ZM236.632 173.811L234.19 173.187C228.467 195.601 206.086 212.578 179.282 212.578V215.098V217.618C208.124 217.618 232.718 199.327 239.074 174.434L236.632 173.811ZM179.282 215.098L179.282 212.578C151.716 212.577 129.026 194.791 123.989 171.593L121.527 172.128L119.064 172.663C124.663 198.45 149.635 217.617 179.282 217.618L179.282 215.098ZM121.527 172.128L123.265 170.304C116.696 164.041 113.126 157.713 112.107 153.522C111.571 151.317 111.873 150.289 112.044 150.03C112.072 149.987 112.074 149.978 112.159 149.958C112.306 149.923 112.709 149.887 113.47 150.117L114.198 147.704L114.925 145.291C113.618 144.897 112.273 144.752 110.999 145.053C109.663 145.369 108.57 146.141 107.834 147.259C106.478 149.319 106.58 152.122 107.21 154.713C108.524 160.116 112.756 167.249 119.788 173.952L121.527 172.128ZM114.198 147.704L113.47 150.117C114.852 150.533 116.224 151.178 117.967 152.099L119.145 149.871L120.323 147.643C118.506 146.683 116.786 145.853 114.925 145.291L114.198 147.704ZM119.145 149.871L121.662 149.996C122.145 140.292 124.999 130.74 129.406 123.469C133.844 116.145 139.602 111.511 145.761 110.77L145.46 108.268L145.159 105.766C136.842 106.767 129.945 112.854 125.095 120.856C120.215 128.91 117.149 139.289 116.628 149.746L119.145 149.871ZM145.46 108.268L145.766 110.769C148.592 110.423 151.67 110.879 154.899 112.073L155.773 109.71L156.647 107.346C152.85 105.942 148.952 105.301 145.154 105.766L145.46 108.268ZM155.773 109.71L157.795 111.213C164.128 102.695 171.746 97.52 178.992 97.52V95V92.48C169.391 92.48 160.463 99.1778 153.75 108.206L155.773 109.71Z" fill="url(#paint1_linear_205_3293)" mask="url(#path-3-outside-1_205_3293)"/>
</g>
<path d="M203.123 139.131C200.77 138.892 198.281 139.231 195.78 140.021C191.296 135.054 185.554 131.691 179.776 131.691C173.998 131.691 168.331 135.016 163.859 139.934C161.444 139.206 159.054 138.905 156.787 139.118C144.356 140.348 135.843 157.321 139.564 170.845C139.613 171.008 139.663 171.184 139.712 171.347C139.712 171.359 139.724 171.384 139.737 171.397C141.326 186.815 158.734 198.959 179.986 198.959C201.238 198.959 218.794 186.702 220.26 171.184C220.297 171.071 220.334 170.945 220.358 170.832C224.079 157.309 215.566 140.322 203.135 139.106L203.123 139.131Z" fill="url(#paint2_linear_205_3293)"/>
<path d="M179.634 175.451C174.882 175.451 173.462 167.91 173.116 165.337C173.055 164.886 173.421 164.508 173.876 164.527C175.201 164.582 177.787 164.678 179.634 164.678C181.48 164.678 184.066 164.582 185.391 164.527C185.846 164.508 186.212 164.886 186.152 165.337C185.805 167.91 184.385 175.451 179.634 175.451Z" fill="#FF812C" stroke="#FFEFC6" stroke-width="0.378"/>
<path d="M182.469 166.42C182.469 167.441 181.2 168.269 179.634 168.269C178.068 168.269 176.799 167.441 176.799 166.42C176.799 165.4 178.068 165.65 179.634 165.65C181.2 165.65 182.469 165.4 182.469 166.42Z" fill="#F7F7F7"/>
<ellipse opacity="0.6" cx="152.754" cy="167.45" rx="6.51" ry="5.25" fill="#FF9752"/>
<ellipse opacity="0.6" cx="206.514" cy="167.45" rx="6.51" ry="5.25" fill="#FF9752"/>
<path d="M160.87 155.604C161.366 155.08 162.201 155.08 162.698 155.604L164.733 157.749C164.84 157.861 164.966 157.953 165.105 158.019L167.775 159.292C168.426 159.603 168.684 160.397 168.34 161.031L166.928 163.63C166.854 163.766 166.806 163.914 166.786 164.067L166.4 167C166.306 167.715 165.631 168.206 164.921 168.074L162.013 167.535C161.862 167.507 161.706 167.507 161.554 167.535L158.646 168.074C157.936 168.206 157.261 167.715 157.167 167L156.781 164.067C156.761 163.914 156.713 163.766 156.639 163.63L155.228 161.031C154.883 160.397 155.141 159.603 155.792 159.292L158.462 158.019C158.602 157.953 158.728 157.861 158.834 157.749L160.87 155.604Z" fill="#231F20"/>
<ellipse cx="160.045" cy="160.055" rx="2.60963" ry="1.3608" transform="rotate(-27.6569 160.045 160.055)" fill="#F7F7F7"/>
<path d="M196.99 155.604C197.487 155.08 198.321 155.08 198.818 155.604L200.853 157.749C200.96 157.861 201.086 157.953 201.225 158.019L203.895 159.292C204.547 159.603 204.804 160.397 204.46 161.031L203.048 163.63C202.975 163.766 202.926 163.914 202.906 164.067L202.521 167C202.426 167.715 201.751 168.206 201.042 168.074L198.134 167.535C197.982 167.507 197.826 167.507 197.674 167.535L194.766 168.074C194.056 168.206 193.381 167.715 193.287 167L192.901 164.067C192.881 163.914 192.833 163.766 192.759 163.63L191.348 161.031C191.003 160.397 191.261 159.603 191.913 159.292L194.582 158.019C194.722 157.953 194.848 157.861 194.954 157.749L196.99 155.604Z" fill="#231F20"/>
<ellipse cx="196.585" cy="160.056" rx="2.60963" ry="1.3608" transform="rotate(-27.6569 196.585 160.056)" fill="#F7F7F7"/>
<ellipse cx="180" cy="238.155" rx="34.1817" ry="3.0569" fill="#CBC9C2"/>
<defs>
<filter id="filter0_di_205_3293" x="91.996" y="77.7118" width="176.009" height="154.674" filterUnits="userSpaceOnUse" color-interpolation-filters="sRGB">
<feFlood flood-opacity="0" result="BackgroundImageFix"/>
<feColorMatrix in="SourceAlpha" type="matrix" values="0 0 0 0 0 0 0 0 0 0 0 0 0 0 0 0 0 0 127 0" result="hardAlpha"/>
<feOffset/>
<feGaussianBlur stdDeviation="7.3841"/>
<feComposite in2="hardAlpha" operator="out"/>
<feColorMatrix type="matrix" values="0 0 0 0 1 0 0 0 0 0.75645 0 0 0 0 0.543344 0 0 0 0.7 0"/>
<feBlend mode="normal" in2="BackgroundImageFix" result="effect1_dropShadow_205_3293"/>
<feBlend mode="normal" in="SourceGraphic" in2="effect1_dropShadow_205_3293" result="shape"/>
<feColorMatrix in="SourceAlpha" type="matrix" values="0 0 0 0 0 0 0 0 0 0 0 0 0 0 0 0 0 0 127 0" result="hardAlpha"/>
<feOffset dy="5.88453"/>
<feGaussianBlur stdDeviation="4.01218"/>
<feComposite in2="hardAlpha" operator="arithmetic" k2="-1" k3="1"/>
<feColorMatrix type="matrix" values="0 0 0 0 1 0 0 0 0 0.5 0 0 0 0 0 0 0 0 0.25 0"/>
<feBlend mode="normal" in2="shape" result="effect2_innerShadow_205_3293"/>
</filter>
<linearGradient id="paint0_linear_205_3293" x1="180" y1="95" x2="180" y2="215.098" gradientUnits="userSpaceOnUse">
<stop stop-color="#FFCF99"/>
<stop offset="0.326923" stop-color="#FF8C49"/>
<stop offset="0.692308" stop-color="#FFAE5F"/>
<stop offset="1" stop-color="#FFC859"/>
</linearGradient>
<linearGradient id="paint1_linear_205_3293" x1="180" y1="95" x2="180" y2="215.098" gradientUnits="userSpaceOnUse">
<stop stop-color="#FFB673"/>
<stop offset="0.197115" stop-color="#FF8743"/>
<stop offset="0.576923" stop-color="#FFA444"/>
<stop offset="0.721154" stop-color="#FF9B43"/>
<stop offset="1" stop-color="#FFB845"/>
</linearGradient>
<linearGradient id="paint2_linear_205_3293" x1="179.961" y1="149.771" x2="179.961" y2="181.278" gradientUnits="userSpaceOnUse">
<stop stop-color="#FFF1D1"/>
<stop offset="1" stop-color="#FFE8A3"/>
</linearGradient>
</defs>
</svg>
