<svg width="53" height="45" viewBox="0 0 53 45" fill="none" xmlns="http://www.w3.org/2000/svg">
<g filter="url(#filter0_d_362_656)">
<g filter="url(#filter1_d_362_656)">
<g filter="url(#filter2_d_362_656)">
<mask id="path-1-outside-1_362_656" maskUnits="userSpaceOnUse" x="4.06738" y="1" width="45" height="37" fill="black">
<rect fill="white" x="4.06738" y="1" width="45" height="37"/>
<path d="M26.2431 3C28.5577 3.00006 30.8586 4.65054 32.6543 7.08398C33.6575 6.69755 34.6541 6.53088 35.5986 6.64551V6.64258C39.8458 7.15402 42.9493 13.288 42.8447 19.1992C42.9059 19.2037 42.9679 19.2107 43.0312 19.2148C44.4612 19.3078 45.3511 19.2521 46.167 19.4707C48.0982 19.9887 46.2277 22.6073 42.2451 23.9189C40.9007 30.785 34.253 36 26.3222 36C18.3048 35.9998 11.653 30.7169 10.372 23.7861C6.65441 22.4381 4.96505 19.9715 6.83394 19.4707C7.6137 19.2618 8.46034 19.3007 9.78219 19.2236C9.67015 13.3076 12.7772 7.15749 17.0293 6.64551C17.9392 6.53414 18.8979 6.68497 19.8632 7.04199C21.6555 4.63132 23.9285 3 26.2431 3Z"/>
</mask>
<path d="M26.2431 3C28.5577 3.00006 30.8586 4.65054 32.6543 7.08398C33.6575 6.69755 34.6541 6.53088 35.5986 6.64551V6.64258C39.8458 7.15402 42.9493 13.288 42.8447 19.1992C42.9059 19.2037 42.9679 19.2107 43.0312 19.2148C44.4612 19.3078 45.3511 19.2521 46.167 19.4707C48.0982 19.9887 46.2277 22.6073 42.2451 23.9189C40.9007 30.785 34.253 36 26.3222 36C18.3048 35.9998 11.653 30.7169 10.372 23.7861C6.65441 22.4381 4.96505 19.9715 6.83394 19.4707C7.6137 19.2618 8.46034 19.3007 9.78219 19.2236C9.67015 13.3076 12.7772 7.15749 17.0293 6.64551C17.9392 6.53414 18.8979 6.68497 19.8632 7.04199C21.6555 4.63132 23.9285 3 26.2431 3Z" fill="url(#paint0_linear_362_656)"/>
<path d="M26.2431 3L26.2432 1.11H26.2431V3ZM32.6543 7.08398L31.1335 8.20617L31.989 9.36557L33.3336 8.84768L32.6543 7.08398ZM35.5986 6.64551L35.3709 8.52174L37.4886 8.77876V6.64551H35.5986ZM35.5986 6.64258L35.8245 4.76613L33.7086 4.51134V6.64258H35.5986ZM42.8447 19.1992L40.955 19.1658L40.9233 20.9535L42.7065 21.0842L42.8447 19.1992ZM43.0312 19.2148L43.1538 17.3288L43.1535 17.3288L43.0312 19.2148ZM46.167 19.4707L46.6566 17.6452L46.6561 17.6451L46.167 19.4707ZM42.2451 23.9189L41.6539 22.1238L40.6029 22.4699L40.3903 23.5558L42.2451 23.9189ZM26.3222 36L26.3222 37.89H26.3222V36ZM10.372 23.7861L12.2306 23.4426L12.0338 22.3783L11.0163 22.0093L10.372 23.7861ZM6.83394 19.4707L6.34478 17.6451L6.34478 17.6451L6.83394 19.4707ZM9.78219 19.2236L9.89216 21.1104L11.7063 21.0047L11.6718 19.1878L9.78219 19.2236ZM17.0293 6.64551L17.2552 8.52196L17.2588 8.52151L17.0293 6.64551ZM19.8632 7.04199L19.2076 8.81464L20.5354 9.3057L21.38 8.16962L19.8632 7.04199ZM26.2431 3L26.2431 4.89C27.6715 4.89004 29.4807 5.96638 31.1335 8.20617L32.6543 7.08398L34.175 5.9618C32.2365 3.3347 29.4438 1.11008 26.2432 1.11L26.2431 3ZM32.6543 7.08398L33.3336 8.84768C34.1224 8.54384 34.8036 8.45289 35.3709 8.52174L35.5986 6.64551L35.8263 4.76928C34.5046 4.60886 33.1926 4.85127 31.9749 5.32029L32.6543 7.08398ZM35.5986 6.64551H37.4886V6.64258H35.5986H33.7086V6.64551H35.5986ZM35.5986 6.64258L35.3726 8.51902C36.6348 8.67101 38.0459 9.72698 39.2002 11.8115C40.3253 13.8434 41.0017 16.525 40.955 19.1658L42.8447 19.1992L44.7344 19.2327C44.7923 15.9622 43.9693 12.6212 42.507 9.98042C41.0739 7.39232 38.8096 5.12558 35.8245 4.76613L35.5986 6.64258ZM42.8447 19.1992L42.7065 21.0842C42.7163 21.0849 42.727 21.0859 42.7656 21.0894C42.7969 21.0922 42.8501 21.0971 42.9089 21.1009L43.0312 19.2148L43.1535 17.3288C43.149 17.3285 43.1396 17.3278 43.1088 17.325C43.0852 17.3228 43.0343 17.318 42.9828 17.3143L42.8447 19.1992ZM43.0312 19.2148L42.9086 21.1009C43.6197 21.1471 44.3339 21.1633 44.7355 21.1833C45.205 21.2067 45.469 21.2404 45.6778 21.2963L46.167 19.4707L46.6561 17.6451C46.049 17.4824 45.4602 17.4347 44.9232 17.408C44.3184 17.3779 43.8727 17.3755 43.1538 17.3288L43.0312 19.2148ZM46.167 19.4707L45.6773 21.2962C45.6835 21.2978 45.1184 21.0865 45.0484 20.3885C45.007 19.9759 45.2136 19.8921 44.962 20.1991C44.535 20.7199 43.426 21.5401 41.6539 22.1238L42.2451 23.9189L42.8363 25.7141C45.0467 24.9861 46.8642 23.8412 47.8854 22.5953C48.3579 22.0189 48.9189 21.1014 48.8095 20.0112C48.6715 18.6355 47.616 17.9025 46.6566 17.6452L46.167 19.4707ZM42.2451 23.9189L40.3903 23.5558C39.241 29.4256 33.4654 34.11 26.3222 34.11V36V37.89C35.0407 37.89 42.5604 32.1444 44.0999 24.2821L42.2451 23.9189ZM26.3222 36L26.3223 34.11C19.0981 34.1099 13.3254 29.366 12.2306 23.4426L10.372 23.7861L8.51351 24.1296C9.98071 32.0677 17.5114 37.8898 26.3222 37.89L26.3222 36ZM10.372 23.7861L11.0163 22.0093C9.36297 21.4098 8.36676 20.6262 8.00498 20.1569C7.79197 19.8805 8.00838 20.0034 7.94634 20.4354C7.84924 21.1115 7.30657 21.3007 7.32311 21.2963L6.83394 19.4707L6.34478 17.6451C5.42687 17.8911 4.39453 18.5764 4.20473 19.898C4.05 20.9754 4.57069 21.8931 5.0111 22.4645C5.95618 23.6906 7.66347 24.8144 9.72774 25.5629L10.372 23.7861ZM6.83394 19.4707L7.32311 21.2963C7.52319 21.2427 7.7757 21.2086 8.2083 21.1849C8.42493 21.173 8.65792 21.1648 8.94467 21.154C9.22464 21.1435 9.54141 21.1309 9.89216 21.1104L9.78219 19.2236L9.67221 17.3368C9.36204 17.3549 9.07728 17.3663 8.80237 17.3767C8.53424 17.3868 8.25899 17.3964 8.00126 17.4105C7.48514 17.4389 6.92446 17.4898 6.34478 17.6451L6.83394 19.4707ZM9.78219 19.2236L11.6718 19.1878C11.6218 16.5455 12.2973 13.859 13.4232 11.8225C14.5785 9.73288 15.9917 8.67409 17.2552 8.52195L17.0293 6.64551L16.8033 4.76906C13.8147 5.12891 11.5484 7.40115 10.1151 9.99358C8.65254 12.6391 7.83053 15.9857 7.89253 19.2594L9.78219 19.2236ZM17.0293 6.64551L17.2588 8.52151C17.8039 8.45481 18.4554 8.53643 19.2076 8.81464L19.8632 7.04199L20.5189 5.26935C19.3405 4.83352 18.0745 4.61348 16.7997 4.76951L17.0293 6.64551ZM19.8632 7.04199L21.38 8.16962C23.03 5.95027 24.8118 4.89 26.2431 4.89V3V1.11C23.0451 1.11 20.2809 3.31236 18.3465 5.91436L19.8632 7.04199Z" fill="#F7F7F7" mask="url(#path-1-outside-1_362_656)"/>
</g>
<path d="M32.668 15.1256C32.0214 15.0602 31.3376 15.1532 30.6504 15.3704C29.4182 14.0054 27.8407 13.0815 26.2531 13.0815C24.6654 13.0815 23.1082 13.995 21.8794 15.3463C21.2159 15.1463 20.5592 15.0636 19.9363 15.1222C16.5207 15.46 14.1815 20.1239 15.2038 23.8398C15.2174 23.8846 15.2309 23.9329 15.2445 23.9777C15.2445 23.9811 15.2478 23.988 15.2512 23.9915C15.6879 28.2279 20.4712 31.5647 26.3106 31.5647C32.15 31.5647 36.9739 28.1969 37.3767 23.9329C37.3869 23.9019 37.3971 23.8674 37.4038 23.8364C38.4262 20.1204 36.087 15.4531 32.6714 15.1188L32.668 15.1256Z" fill="url(#paint1_linear_362_656)"/>
<path d="M21.5406 23.0758C22.3048 23.0758 22.9244 22.4562 22.9244 21.6919C22.9244 20.9277 22.3048 20.3081 21.5406 20.3081C20.7763 20.3081 20.1567 20.9277 20.1567 21.6919C20.1567 22.4562 20.7763 23.0758 21.5406 23.0758Z" fill="#231F20"/>
<ellipse cx="0.427768" cy="0.26633" rx="0.427768" ry="0.26633" transform="matrix(0.756959 -0.653462 0.516981 0.855997 20.7046 21.3691)" fill="#F7F7F7"/>
<path d="M30.8985 23.0758C31.6627 23.0758 32.2823 22.4562 32.2823 21.6919C32.2823 20.9277 31.6627 20.3081 30.8985 20.3081C30.1342 20.3081 29.5146 20.9277 29.5146 21.6919C29.5146 22.4562 30.1342 23.0758 30.8985 23.0758Z" fill="#231F20"/>
<ellipse cx="0.427768" cy="0.26633" rx="0.427768" ry="0.26633" transform="matrix(0.756959 -0.653462 0.516981 0.855997 30.168 21.3691)" fill="#F7F7F7"/>
<path d="M24.5405 22.7744L24.5925 22.816C25.5144 23.5507 27.0115 23.5507 27.9334 22.816" stroke="#231F20" stroke-width="0.727784" stroke-linecap="round" stroke-linejoin="round"/>
</g>
</g>
<defs>
<filter id="filter0_d_362_656" x="0.176758" y="0.109863" width="52.6465" height="44.7803" filterUnits="userSpaceOnUse" color-interpolation-filters="sRGB">
<feFlood flood-opacity="0" result="BackgroundImageFix"/>
<feColorMatrix in="SourceAlpha" type="matrix" values="0 0 0 0 0 0 0 0 0 0 0 0 0 0 0 0 0 0 127 0" result="hardAlpha"/>
<feOffset dy="3"/>
<feGaussianBlur stdDeviation="2"/>
<feComposite in2="hardAlpha" operator="out"/>
<feColorMatrix type="matrix" values="0 0 0 0 0 0 0 0 0 0 0 0 0 0 0 0 0 0 0.05 0"/>
<feBlend mode="normal" in2="BackgroundImageFix" result="effect1_dropShadow_362_656"/>
<feBlend mode="normal" in="SourceGraphic" in2="effect1_dropShadow_362_656" result="shape"/>
</filter>
<filter id="filter1_d_362_656" x="0.176758" y="0.109863" width="52.6465" height="44.7803" filterUnits="userSpaceOnUse" color-interpolation-filters="sRGB">
<feFlood flood-opacity="0" result="BackgroundImageFix"/>
<feColorMatrix in="SourceAlpha" type="matrix" values="0 0 0 0 0 0 0 0 0 0 0 0 0 0 0 0 0 0 127 0" result="hardAlpha"/>
<feOffset dy="3"/>
<feGaussianBlur stdDeviation="2"/>
<feComposite in2="hardAlpha" operator="out"/>
<feColorMatrix type="matrix" values="0 0 0 0 0 0 0 0 0 0 0 0 0 0 0 0 0 0 0.05 0"/>
<feBlend mode="normal" in2="BackgroundImageFix" result="effect1_dropShadow_362_656"/>
<feBlend mode="normal" in="SourceGraphic" in2="effect1_dropShadow_362_656" result="shape"/>
</filter>
<filter id="filter2_d_362_656" x="0.176758" y="0.109863" width="52.6465" height="44.7803" filterUnits="userSpaceOnUse" color-interpolation-filters="sRGB">
<feFlood flood-opacity="0" result="BackgroundImageFix"/>
<feColorMatrix in="SourceAlpha" type="matrix" values="0 0 0 0 0 0 0 0 0 0 0 0 0 0 0 0 0 0 127 0" result="hardAlpha"/>
<feOffset dy="3"/>
<feGaussianBlur stdDeviation="2"/>
<feComposite in2="hardAlpha" operator="out"/>
<feColorMatrix type="matrix" values="0 0 0 0 0 0 0 0 0 0 0 0 0 0 0 0 0 0 0.05 0"/>
<feBlend mode="normal" in2="BackgroundImageFix" result="effect1_dropShadow_362_656"/>
<feBlend mode="normal" in="SourceGraphic" in2="effect1_dropShadow_362_656" result="shape"/>
</filter>
<linearGradient id="paint0_linear_362_656" x1="26.5002" y1="3" x2="26.5002" y2="36" gradientUnits="userSpaceOnUse">
<stop stop-color="#FFCF99"/>
<stop offset="0.326923" stop-color="#FF8C49"/>
<stop offset="0.692308" stop-color="#FFAE5F"/>
<stop offset="1" stop-color="#FFC859"/>
</linearGradient>
<linearGradient id="paint1_linear_362_656" x1="26.3038" y1="18.0493" x2="26.3038" y2="26.7065" gradientUnits="userSpaceOnUse">
<stop stop-color="#FFF1D1"/>
<stop offset="1" stop-color="#FFE8A3"/>
</linearGradient>
</defs>
</svg>
