<svg width="24" height="24" viewBox="0 0 24 24" fill="none" xmlns="http://www.w3.org/2000/svg">
<path d="M19.5415 13.5759C19.4581 9.2177 16.7863 6.15102 15.109 4.64898C14.3708 3.98615 13.2959 3.98615 12.5577 4.64898C11.9461 5.19802 11.2017 5.95758 10.4974 6.91058C10.0248 6.61188 9.57386 6.36154 9.17849 6.16241C8.31671 5.73 7.2696 5.94335 6.6889 6.67446C5.37306 8.32728 3.41475 11.5533 4.26109 15.3966C4.5607 16.7535 5.11052 17.772 5.81786 18.5059C7.1862 20.0648 9.3978 21.0776 11.8967 21.0776C15.7392 21.0776 18.9052 18.6823 19.3623 15.5872C19.489 14.9841 19.5569 14.3184 19.5415 13.5759Z" fill="#5F5548"/>
<path d="M15.9555 15.3406C15.911 13.3538 14.4778 11.9565 13.5783 11.2714C13.183 10.9688 12.6072 10.9688 12.2118 11.2714C11.8832 11.5218 11.4829 11.8677 11.1073 12.3024C10.8528 12.1658 10.6106 12.0521 10.4006 11.961C9.93847 11.763 9.37754 11.8609 9.06618 12.1932C8.35946 12.9465 7.31173 14.4189 7.76393 16.169C7.92455 16.788 8.21861 17.2523 8.59915 17.5869C9.33306 18.2969 10.5192 18.7589 11.8585 18.7589C13.9193 18.7589 15.617 17.6665 15.8616 16.2555C15.9283 15.9801 15.9654 15.6774 15.958 15.3383L15.9555 15.3406Z" fill="#F2EFE6"/>
</svg>
