<svg width="55" height="47" viewBox="0 0 55 47" fill="none" xmlns="http://www.w3.org/2000/svg">
<g filter="url(#filter0_d_362_631)">
<g filter="url(#filter1_d_362_631)">
<mask id="path-1-outside-1_362_631" maskUnits="userSpaceOnUse" x="4.77686" y="1.17529" width="46" height="39" fill="black">
<rect fill="white" x="4.77686" y="1.17529" width="46" height="39"/>
<path d="M27.4671 3.17529C29.8975 3.17529 32.3131 4.90906 34.1986 7.46436C35.252 7.05856 36.2987 6.8831 37.2904 7.00342V6.99951C41.8745 7.5514 45.1923 14.3419 44.8841 20.7036C48.2001 23.0674 49.1982 25.9653 47.1888 25.9653C46.3576 25.9653 45.526 25.7054 44.2103 25.4302C42.6706 32.4958 35.7664 37.8246 27.5511 37.8247C19.291 37.8247 12.4106 32.4849 10.8841 25.4097C9.51321 25.6919 8.6618 25.9653 7.81088 25.9653C5.78571 25.9651 6.81598 23.0208 10.1956 20.647C9.91156 14.3046 13.2238 7.55354 17.7933 7.00342C18.7486 6.88656 19.7545 7.04467 20.7679 7.41943C22.6497 4.88828 25.0368 3.17539 27.4671 3.17529Z"/>
</mask>
<path d="M27.4671 3.17529C29.8975 3.17529 32.3131 4.90906 34.1986 7.46436C35.252 7.05856 36.2987 6.8831 37.2904 7.00342V6.99951C41.8745 7.5514 45.1923 14.3419 44.8841 20.7036C48.2001 23.0674 49.1982 25.9653 47.1888 25.9653C46.3576 25.9653 45.526 25.7054 44.2103 25.4302C42.6706 32.4958 35.7664 37.8246 27.5511 37.8247C19.291 37.8247 12.4106 32.4849 10.8841 25.4097C9.51321 25.6919 8.6618 25.9653 7.81088 25.9653C5.78571 25.9651 6.81598 23.0208 10.1956 20.647C9.91156 14.3046 13.2238 7.55354 17.7933 7.00342C18.7486 6.88656 19.7545 7.04467 20.7679 7.41943C22.6497 4.88828 25.0368 3.17539 27.4671 3.17529Z" fill="url(#paint0_linear_362_631)"/>
<path d="M27.4671 3.17529V1.28529H27.4671L27.4671 3.17529ZM34.1986 7.46436L32.6778 8.58651L33.5333 9.74599L34.8779 9.22803L34.1986 7.46436ZM37.2904 7.00342L37.0627 8.87966L39.1804 9.13659V7.00342H37.2904ZM37.2904 6.99951L37.5163 5.12306L35.4004 4.86833V6.99951H37.2904ZM44.8841 20.7036L42.9963 20.6122L42.9464 21.6433L43.787 22.2426L44.8841 20.7036ZM47.1888 25.9653V27.8553H47.1889L47.1888 25.9653ZM44.2103 25.4302L44.5972 23.5802L42.7627 23.1965L42.3636 25.0278L44.2103 25.4302ZM27.5511 37.8247V39.7147H27.5511L27.5511 37.8247ZM10.8841 25.4097L12.7316 25.0111L12.3368 23.181L10.503 23.5585L10.8841 25.4097ZM7.81088 25.9653L7.81067 27.8553H7.81088V25.9653ZM10.1956 20.647L11.2819 22.1936L12.1301 21.5979L12.0837 20.5624L10.1956 20.647ZM17.7933 7.00342L18.0192 8.87987L18.0228 8.87943L17.7933 7.00342ZM20.7679 7.41943L20.1124 9.1921L21.4401 9.68311L22.2847 8.54706L20.7679 7.41943ZM27.4671 3.17529V5.06529C29.011 5.06529 30.9349 6.22445 32.6778 8.58651L34.1986 7.46436L35.7194 6.3422C33.6913 3.59368 30.784 1.28529 27.4671 1.28529V3.17529ZM34.1986 7.46436L34.8779 9.22803C35.7175 8.90464 36.4487 8.80516 37.0627 8.87966L37.2904 7.00342L37.518 5.12718C36.1486 4.96104 34.7866 5.21249 33.5192 5.70068L34.1986 7.46436ZM37.2904 7.00342H39.1804V6.99951H37.2904H35.4004V7.00342H37.2904ZM37.2904 6.99951L37.0645 8.87596C38.4725 9.04548 40.0226 10.2489 41.2536 12.5611C42.4531 14.814 43.1344 17.7624 42.9963 20.6122L44.8841 20.7036L46.7719 20.7951C46.942 17.2831 46.1186 13.6553 44.5902 10.7847C43.0933 7.97315 40.6924 5.50544 37.5163 5.12306L37.2904 6.99951ZM44.8841 20.7036L43.787 22.2426C45.27 23.2997 46.0492 24.3559 46.2815 24.93C46.4164 25.2632 46.2425 25.0973 46.4157 24.7079C46.6836 24.105 47.2321 24.0753 47.1888 24.0753L47.1888 25.9653L47.1889 27.8553C48.1502 27.8553 49.3274 27.4634 49.8698 26.2433C50.3172 25.2366 50.0634 24.1985 49.7854 23.5118C49.1921 22.046 47.8143 20.4713 45.9812 19.1646L44.8841 20.7036ZM47.1888 25.9653V24.0753C46.9669 24.0753 46.7001 24.0411 46.2674 23.9508C46.0509 23.9056 45.818 23.8521 45.535 23.7874C45.258 23.7241 44.9446 23.6529 44.5972 23.5802L44.2103 25.4302L43.8234 27.2801C44.1338 27.3451 44.4178 27.4095 44.6928 27.4724C44.9617 27.5338 45.2354 27.5969 45.4952 27.6511C46.0149 27.7596 46.5795 27.8553 47.1888 27.8553V25.9653ZM44.2103 25.4302L42.3636 25.0278C41.0356 31.1221 34.9874 35.9346 27.5511 35.9347L27.5511 37.8247L27.5511 39.7147C36.5454 39.7146 44.3057 33.8695 46.057 25.8326L44.2103 25.4302ZM27.5511 37.8247V35.9347C20.0719 35.9347 14.0482 31.1135 12.7316 25.0111L10.8841 25.4097L9.03663 25.8083C10.773 33.8563 18.5101 39.7147 27.5511 39.7147V37.8247ZM10.8841 25.4097L10.503 23.5585C10.1396 23.6333 9.81326 23.707 9.52425 23.773C9.22835 23.8407 8.98763 23.8965 8.76186 23.9442C8.31123 24.0393 8.03804 24.0753 7.81088 24.0753V25.9653V27.8553C8.43464 27.8553 9.01261 27.7546 9.54315 27.6425C9.80796 27.5866 10.0903 27.5211 10.3662 27.4581C10.649 27.3935 10.9431 27.3272 11.2652 27.2608L10.8841 25.4097ZM7.81088 25.9653L7.81108 24.0753C7.76978 24.0753 8.32497 24.1081 8.58866 24.718C8.75587 25.1047 8.58132 25.2613 8.72314 24.9182C8.9672 24.3277 9.77032 23.2553 11.2819 22.1936L10.1956 20.647L9.10933 19.1004C7.2413 20.4124 5.83946 21.9991 5.22976 23.4743C4.94469 24.164 4.68107 25.2051 5.11906 26.2181C5.65354 27.4543 6.83939 27.8552 7.81067 27.8553L7.81088 25.9653ZM10.1956 20.647L12.0837 20.5624C11.9565 17.7206 12.6421 14.7857 13.8409 12.5446C15.0711 10.245 16.616 9.0488 18.0192 8.87987L17.7933 7.00342L17.5674 5.12697C14.4011 5.50816 12.0052 7.96256 10.5078 10.7616C8.97922 13.6191 8.15074 17.231 8.30753 20.7315L10.1956 20.647ZM17.7933 7.00342L18.0228 8.87943C18.6134 8.80718 19.3122 8.8962 20.1124 9.1921L20.7679 7.41943L21.4235 5.64677C20.1968 5.19315 18.8837 4.96594 17.5638 5.1274L17.7933 7.00342ZM20.7679 7.41943L22.2847 8.54706C24.0241 6.20737 25.9201 5.06535 27.4672 5.06529L27.4671 3.17529L27.4671 1.28529C24.1535 1.28542 21.2753 3.56919 19.2511 6.2918L20.7679 7.41943Z" fill="#F7F7F7" mask="url(#path-1-outside-1_362_631)"/>
</g>
<path d="M34.2139 15.9075C33.535 15.8388 32.817 15.9365 32.0955 16.1645C30.8017 14.7312 29.1453 13.7612 27.4783 13.7612C25.8112 13.7612 24.1762 14.7204 22.8859 16.1392C22.1893 15.9293 21.4997 15.8424 20.8457 15.9039C17.2593 16.2586 14.8031 21.1557 15.8766 25.0574C15.8908 25.1045 15.905 25.1551 15.9192 25.2022C15.9192 25.2058 15.9228 25.213 15.9263 25.2167C16.3849 29.6649 21.4073 33.1685 27.5387 33.1685C33.6701 33.1685 38.7352 29.6323 39.1581 25.1551C39.1688 25.1226 39.1795 25.0864 39.1866 25.0538C40.26 21.1521 37.8039 16.2514 34.2175 15.9003L34.2139 15.9075Z" fill="url(#paint1_linear_362_631)"/>
<path d="M22.6519 24.364C23.4478 24.364 24.093 23.7188 24.093 22.9229C24.093 22.1271 23.4478 21.4819 22.6519 21.4819C21.8561 21.4819 21.2109 22.1271 21.2109 22.9229C21.2109 23.7188 21.8561 24.364 22.6519 24.364Z" fill="#231F20"/>
<ellipse cx="0.449157" cy="0.279647" rx="0.449157" ry="0.279647" transform="matrix(0.756959 -0.653462 0.516981 0.855997 21.6577 22.4629)" fill="#F7F7F7"/>
<path d="M32.4774 24.0149C33.0803 24.0149 33.5691 23.5261 33.5691 22.9232C33.5691 22.3203 33.0803 21.8315 32.4774 21.8315C31.8745 21.8315 31.3857 22.3203 31.3857 22.9232C31.3857 23.5261 31.8745 24.0149 32.4774 24.0149Z" fill="#231F20"/>
<path d="M32.4771 24.364C33.273 24.364 33.9182 23.7188 33.9182 22.9229C33.9182 22.1271 33.273 21.4819 32.4771 21.4819C31.6813 21.4819 31.0361 22.1271 31.0361 22.9229C31.0361 23.7188 31.6813 24.364 32.4771 24.364Z" fill="#231F20"/>
<ellipse cx="0.449157" cy="0.279647" rx="0.449157" ry="0.279647" transform="matrix(0.756959 -0.653462 0.516981 0.855997 31.5942 22.4629)" fill="#F7F7F7"/>
<path d="M25.8013 24.6821L25.8559 24.6385C26.8918 24.0403 28.3459 24.078 29.3638 24.6385" stroke="#231F20" stroke-width="0.727784" stroke-linecap="round" stroke-linejoin="round"/>
<path d="M33.4351 26.7177C33.4351 27.1335 33.0825 27.4706 32.6475 27.4706C32.2125 27.4706 31.8599 27.1335 31.8599 26.7177C31.8599 26.4426 32.2045 25.6678 32.4379 25.1749C32.5229 24.9952 32.7721 24.9952 32.8571 25.1749C33.0905 25.6678 33.4351 26.4426 33.4351 26.7177Z" fill="#FF9752"/>
</g>
<defs>
<filter id="filter0_d_362_631" x="0.886719" y="0.285156" width="53.2271" height="46.4297" filterUnits="userSpaceOnUse" color-interpolation-filters="sRGB">
<feFlood flood-opacity="0" result="BackgroundImageFix"/>
<feColorMatrix in="SourceAlpha" type="matrix" values="0 0 0 0 0 0 0 0 0 0 0 0 0 0 0 0 0 0 127 0" result="hardAlpha"/>
<feOffset dy="3"/>
<feGaussianBlur stdDeviation="2"/>
<feComposite in2="hardAlpha" operator="out"/>
<feColorMatrix type="matrix" values="0 0 0 0 0 0 0 0 0 0 0 0 0 0 0 0 0 0 0.05 0"/>
<feBlend mode="normal" in2="BackgroundImageFix" result="effect1_dropShadow_362_631"/>
<feBlend mode="normal" in="SourceGraphic" in2="effect1_dropShadow_362_631" result="shape"/>
</filter>
<filter id="filter1_d_362_631" x="0.886719" y="0.285156" width="53.2271" height="46.4297" filterUnits="userSpaceOnUse" color-interpolation-filters="sRGB">
<feFlood flood-opacity="0" result="BackgroundImageFix"/>
<feColorMatrix in="SourceAlpha" type="matrix" values="0 0 0 0 0 0 0 0 0 0 0 0 0 0 0 0 0 0 127 0" result="hardAlpha"/>
<feOffset dy="3"/>
<feGaussianBlur stdDeviation="2"/>
<feComposite in2="hardAlpha" operator="out"/>
<feColorMatrix type="matrix" values="0 0 0 0 0 0 0 0 0 0 0 0 0 0 0 0 0 0 0.05 0"/>
<feBlend mode="normal" in2="BackgroundImageFix" result="effect1_dropShadow_362_631"/>
<feBlend mode="normal" in="SourceGraphic" in2="effect1_dropShadow_362_631" result="shape"/>
</filter>
<linearGradient id="paint0_linear_362_631" x1="27.5" y1="3.17529" x2="27.5" y2="37.8248" gradientUnits="userSpaceOnUse">
<stop stop-color="#FFCF99"/>
<stop offset="0.326923" stop-color="#FF8C49"/>
<stop offset="0.692308" stop-color="#FFAE5F"/>
<stop offset="1" stop-color="#FFC859"/>
</linearGradient>
<linearGradient id="paint1_linear_362_631" x1="27.5316" y1="18.9774" x2="27.5316" y2="28.0674" gradientUnits="userSpaceOnUse">
<stop stop-color="#FFF1D1"/>
<stop offset="1" stop-color="#FFE8A3"/>
</linearGradient>
</defs>
</svg>
