<svg width="55" height="47" viewBox="0 0 55 47" fill="none" xmlns="http://www.w3.org/2000/svg">
<g filter="url(#filter0_d_362_681)">
<mask id="path-1-outside-1_362_681" maskUnits="userSpaceOnUse" x="4.77637" y="1.1748" width="46" height="39" fill="black">
<rect fill="white" x="4.77637" y="1.1748" width="46" height="39"/>
<path d="M27.4667 3.1748C29.8971 3.1748 32.3136 4.90854 34.1991 7.46387C35.2527 7.05806 36.2992 6.88256 37.2909 7.00293V6.99902C41.6706 7.52664 44.8932 13.7487 44.9032 19.8506C45.838 19.6382 46.5133 19.4659 47.1884 19.4658C49.3167 19.4658 48.0706 22.7157 44.2704 25.1396C42.859 32.3493 35.8783 37.8252 27.5507 37.8252C19.2141 37.8252 12.2831 32.3857 10.8427 25.2129C6.95328 22.7818 5.66105 19.4659 7.81046 19.4658C8.50552 19.4658 9.20116 19.6473 10.1796 19.8682C10.1851 13.7632 13.4099 7.5306 17.7929 7.00293C18.7482 6.88607 19.7541 7.0442 20.7675 7.41895C22.6493 4.88782 25.0364 3.17498 27.4667 3.1748Z"/>
</mask>
<path d="M27.4667 3.1748C29.8971 3.1748 32.3136 4.90854 34.1991 7.46387C35.2527 7.05806 36.2992 6.88256 37.2909 7.00293V6.99902C41.6706 7.52664 44.8932 13.7487 44.9032 19.8506C45.838 19.6382 46.5133 19.4659 47.1884 19.4658C49.3167 19.4658 48.0706 22.7157 44.2704 25.1396C42.859 32.3493 35.8783 37.8252 27.5507 37.8252C19.2141 37.8252 12.2831 32.3857 10.8427 25.2129C6.95328 22.7818 5.66105 19.4659 7.81046 19.4658C8.50552 19.4658 9.20116 19.6473 10.1796 19.8682C10.1851 13.7632 13.4099 7.5306 17.7929 7.00293C18.7482 6.88607 19.7541 7.0442 20.7675 7.41895C22.6493 4.88782 25.0364 3.17498 27.4667 3.1748Z" fill="url(#paint0_linear_362_681)"/>
<path d="M27.4667 3.1748V1.2848H27.4666L27.4667 3.1748ZM34.1991 7.46387L32.6783 8.58602L33.5339 9.74549L34.8785 9.22755L34.1991 7.46387ZM37.2909 7.00293L37.0632 8.87916L39.1809 9.13619V7.00293H37.2909ZM37.2909 6.99902L37.517 5.12259L35.4009 4.86767V6.99902H37.2909ZM44.9032 19.8506L43.0132 19.8537L43.0171 22.2172L45.3219 21.6936L44.9032 19.8506ZM47.1884 19.4658V17.5758L47.1883 17.5758L47.1884 19.4658ZM44.2704 25.1396L43.254 23.5462L42.5712 23.9818L42.4156 24.7765L44.2704 25.1396ZM27.5507 37.8252V39.7152H27.5507L27.5507 37.8252ZM10.8427 25.2129L12.6957 24.8408L12.5353 24.042L11.8444 23.6102L10.8427 25.2129ZM7.81046 19.4658V17.5758L7.81038 17.5758L7.81046 19.4658ZM10.1796 19.8682L9.76336 21.7118L12.0675 22.232L12.0696 19.8699L10.1796 19.8682ZM17.7929 7.00293L18.0188 8.87938L18.0224 8.87894L17.7929 7.00293ZM20.7675 7.41895L20.112 9.19162L21.4397 9.6826L22.2843 8.54657L20.7675 7.41895ZM27.4667 3.1748V5.0648C29.0108 5.0648 30.9356 6.22419 32.6783 8.58602L34.1991 7.46387L35.7199 6.34171C33.6917 3.59288 30.7834 1.2848 27.4667 1.2848V3.1748ZM34.1991 7.46387L34.8785 9.22755C35.7182 8.90411 36.4492 8.80464 37.0632 8.87916L37.2909 7.00293L37.5186 5.1267C36.1491 4.96048 34.7871 5.21202 33.5198 5.70018L34.1991 7.46387ZM37.2909 7.00293H39.1809V6.99902H37.2909H35.4009V7.00293H37.2909ZM37.2909 6.99902L37.0649 8.87546C38.408 9.03727 39.8815 10.1365 41.0923 12.268C42.2755 14.3508 43.0087 17.1079 43.0132 19.8537L44.9032 19.8506L46.7932 19.8475C46.7877 16.4913 45.9046 13.0865 44.3791 10.4009C42.8811 7.76399 40.5535 5.4884 37.517 5.12259L37.2909 6.99902ZM44.9032 19.8506L45.3219 21.6936C46.3638 21.457 46.7801 21.3558 47.1885 21.3558L47.1884 19.4658L47.1883 17.5758C46.2465 17.5759 45.3123 17.8195 44.4846 18.0075L44.9032 19.8506ZM47.1884 19.4658V21.3558C47.2267 21.3558 47.0886 21.3645 46.8853 21.2472C46.6512 21.1121 46.4722 20.8903 46.3861 20.6506C46.2549 20.2855 46.4283 20.1907 46.2399 20.5945C45.9162 21.2882 44.9553 22.461 43.254 23.5462L44.2704 25.1396L45.2868 26.7331C47.3857 25.3943 48.948 23.7302 49.6653 22.1929C49.9973 21.4813 50.3208 20.4226 49.9434 19.3723C49.7342 18.7901 49.333 18.2955 48.7746 17.9732C48.2469 17.6687 47.6821 17.5758 47.1884 17.5758V19.4658ZM44.2704 25.1396L42.4156 24.7765C41.1993 30.9898 35.0908 35.9352 27.5507 35.9352L27.5507 37.8252L27.5507 39.7152C36.6659 39.7152 44.5188 33.7088 46.1252 25.5028L44.2704 25.1396ZM27.5507 37.8252V35.9352C20.001 35.9352 13.9374 31.0241 12.6957 24.8408L10.8427 25.2129L8.98968 25.585C10.6288 33.7473 18.4272 39.7152 27.5507 39.7152V37.8252ZM10.8427 25.2129L11.8444 23.6102C10.1031 22.5218 9.10891 21.3287 8.76778 20.6138C8.56934 20.1979 8.74111 20.2791 8.6172 20.6383C8.53479 20.8772 8.35798 21.104 8.11998 21.2435C7.91334 21.3647 7.77178 21.3558 7.81055 21.3558L7.81046 19.4658L7.81038 17.5758C7.31179 17.5758 6.74043 17.6706 6.20824 17.9826C5.6447 18.313 5.24659 18.8179 5.04383 19.4057C4.67924 20.4626 5.01414 21.5247 5.35625 22.2417C6.09624 23.7925 7.69291 25.473 9.84094 26.8156L10.8427 25.2129ZM7.81046 19.4658V21.3558C8.23767 21.3558 8.66471 21.4637 9.76336 21.7118L10.1796 19.8682L10.5959 18.0246C9.73762 17.8308 8.77337 17.5758 7.81046 17.5758V19.4658ZM10.1796 19.8682L12.0696 19.8699C12.0721 17.123 12.8047 14.3627 13.9884 12.2769C15.1999 10.1422 16.6748 9.04118 18.0188 8.87938L17.7929 7.00293L17.567 5.12648C14.528 5.49234 12.199 7.77147 10.7009 10.4112C9.17511 13.0999 8.29262 16.5083 8.2896 19.8665L10.1796 19.8682ZM17.7929 7.00293L18.0224 8.87894C18.613 8.80669 19.3118 8.89572 20.112 9.19162L20.7675 7.41895L21.423 5.64627C20.1964 5.19268 18.8833 4.96544 17.5634 5.12692L17.7929 7.00293ZM20.7675 7.41895L22.2843 8.54657C24.0236 6.20695 25.9197 5.06492 27.4668 5.0648L27.4667 3.1748L27.4666 1.2848C24.1531 1.28504 21.2749 3.56868 19.2507 6.29132L20.7675 7.41895Z" fill="#F7F7F7" mask="url(#path-1-outside-1_362_681)"/>
</g>
<path d="M34.2137 15.9071C33.5348 15.8383 32.8168 15.936 32.0952 16.1641C30.8014 14.7308 29.145 13.7607 27.4779 13.7607C25.8109 13.7607 24.1758 14.7199 22.8855 16.1387C22.1889 15.9288 21.4993 15.8419 20.8453 15.9035C17.2588 16.2582 14.8026 21.1553 15.8761 25.0571C15.8903 25.1041 15.9045 25.1548 15.9187 25.2019C15.9187 25.2055 15.9223 25.2127 15.9259 25.2163C16.3844 29.6647 21.4069 33.1683 27.5384 33.1683C33.6698 33.1683 38.735 29.6321 39.158 25.1548C39.1686 25.1222 39.1793 25.086 39.1864 25.0535C40.2599 21.1517 37.8037 16.2509 34.2172 15.8998L34.2137 15.9071Z" fill="url(#paint1_linear_362_681)"/>
<ellipse opacity="0.7" cx="20.0452" cy="23.7144" rx="1.87823" ry="1.5147" fill="#FF9752"/>
<ellipse opacity="0.7" cx="34.95" cy="23.7144" rx="1.87823" ry="1.5147" fill="#FF9752"/>
<path d="M32.764 23.079C33.6832 23.079 34.4284 23.7154 34.4284 22.7962C34.4284 21.877 33.6832 21.1318 32.764 21.1318C31.8448 21.1318 31.0996 21.877 31.0996 22.7962C31.0996 23.7154 31.8448 23.079 32.764 23.079Z" fill="#231F20"/>
<ellipse cx="32.4032" cy="22.0791" rx="0.602333" ry="0.314089" transform="rotate(-17.4796 32.4032 22.0791)" fill="#F7F7F7"/>
<path d="M22.2244 23.079C23.1437 23.079 23.8888 23.7154 23.8888 22.7962C23.8888 21.877 23.1437 21.1318 22.2244 21.1318C21.3052 21.1318 20.5601 21.877 20.5601 22.7962C20.5601 23.7154 21.3052 23.079 22.2244 23.079Z" fill="#231F20"/>
<ellipse cx="21.74" cy="22.0788" rx="0.602333" ry="0.314089" transform="rotate(-25.8369 21.74 22.0788)" fill="#F7F7F7"/>
<path d="M25.6797 23.896L25.7343 23.9397C26.7022 24.7111 28.2743 24.7111 29.2422 23.9397" stroke="#231F20" stroke-width="0.727794" stroke-linecap="round" stroke-linejoin="round"/>
<defs>
<filter id="filter0_d_362_681" x="0.885742" y="0.284668" width="53.2275" height="46.4307" filterUnits="userSpaceOnUse" color-interpolation-filters="sRGB">
<feFlood flood-opacity="0" result="BackgroundImageFix"/>
<feColorMatrix in="SourceAlpha" type="matrix" values="0 0 0 0 0 0 0 0 0 0 0 0 0 0 0 0 0 0 127 0" result="hardAlpha"/>
<feOffset dy="3"/>
<feGaussianBlur stdDeviation="2"/>
<feComposite in2="hardAlpha" operator="out"/>
<feColorMatrix type="matrix" values="0 0 0 0 0 0 0 0 0 0 0 0 0 0 0 0 0 0 0.05 0"/>
<feBlend mode="normal" in2="BackgroundImageFix" result="effect1_dropShadow_362_681"/>
<feBlend mode="normal" in="SourceGraphic" in2="effect1_dropShadow_362_681" result="shape"/>
</filter>
<linearGradient id="paint0_linear_362_681" x1="27.4994" y1="3.1748" x2="27.4994" y2="37.8252" gradientUnits="userSpaceOnUse">
<stop stop-color="#FFCF99"/>
<stop offset="0.326923" stop-color="#FF8C49"/>
<stop offset="0.692308" stop-color="#FFAE5F"/>
<stop offset="1" stop-color="#FFC859"/>
</linearGradient>
<linearGradient id="paint1_linear_362_681" x1="27.5313" y1="18.977" x2="27.5313" y2="28.0671" gradientUnits="userSpaceOnUse">
<stop stop-color="#FFF1D1"/>
<stop offset="1" stop-color="#FFE8A3"/>
</linearGradient>
</defs>
</svg>
