<svg width="89" height="18" viewBox="0 0 89 18" fill="none" xmlns="http://www.w3.org/2000/svg">
<path d="M0.702056 14V1.256H2.64606V6.8H8.94606V1.256H10.8901V14H8.94606V8.456H2.64606V14H0.702056ZM14.6694 11.3C14.6874 9.14 16.5414 8.564 18.2334 8.456C18.8814 8.402 20.3394 8.33 20.7534 8.312V7.556C20.7534 6.476 20.1054 5.846 18.8094 5.828C17.7114 5.846 17.0454 6.35 16.8654 7.052H14.9934C15.1554 5.486 16.6314 4.334 18.8814 4.316C20.4114 4.334 22.6254 4.892 22.6254 7.664V14H20.7894V12.704H20.7174C20.3754 13.406 19.4934 14.216 17.9094 14.216C16.0914 14.216 14.6874 13.172 14.6694 11.3ZM16.5054 11.336C16.5234 12.236 17.2794 12.704 18.3054 12.704C19.8534 12.704 20.7714 11.696 20.7534 10.544V9.68L18.5214 9.824C17.2974 9.914 16.5234 10.382 16.5054 11.336ZM26.8372 14V1.256H28.7092V6.008H28.8172C29.1592 5.396 29.7892 4.334 31.5532 4.316C33.8572 4.334 35.5672 6.152 35.5852 9.248C35.5672 12.326 33.8932 14.18 31.5892 14.18C29.8432 14.18 29.1592 13.136 28.8172 12.524H28.6732V14H26.8372ZM28.6732 9.212C28.6732 11.228 29.5552 12.596 31.1572 12.596C32.8132 12.596 33.6592 11.138 33.6772 9.212C33.6592 7.34 32.8312 5.918 31.1572 5.936C29.5372 5.918 28.6732 7.232 28.6732 9.212ZM39.251 14V4.46H41.123V14H39.251ZM38.999 1.868C38.981 1.256 39.521 0.751999 40.187 0.751999C40.817 0.751999 41.339 1.256 41.339 1.868C41.339 2.48 40.817 2.984 40.187 2.984C39.521 2.984 38.981 2.48 38.999 1.868ZM49.2306 17.78C46.8186 17.78 45.2346 16.718 45.0546 14.936H46.9986C47.1606 15.836 48.0066 16.268 49.2666 16.268C50.7426 16.268 51.6786 15.638 51.6786 14.144V12.272H51.5706C51.2286 12.866 50.5446 13.856 48.7986 13.856C46.5486 13.856 44.8026 12.182 44.8026 9.14C44.8026 6.08 46.5126 4.334 48.8346 4.316C50.5806 4.334 51.2466 5.396 51.5706 6.008H51.7146V4.46H53.5506V14.216C53.5506 16.664 51.6966 17.78 49.2306 17.78ZM46.7106 9.176C46.7106 11.03 47.5746 12.308 49.2306 12.308C50.8146 12.308 51.7146 11.138 51.7146 9.176C51.7146 7.232 50.8326 5.918 49.2306 5.936C47.5566 5.918 46.7106 7.34 46.7106 9.176ZM59.5238 1.256V14H57.6518V1.256H59.5238ZM67.6674 14.18C64.9674 14.198 63.2034 12.218 63.2034 9.284C63.2034 6.296 64.9674 4.334 67.6674 4.316C70.3494 4.334 72.1134 6.296 72.1314 9.284C72.1134 12.218 70.3494 14.198 67.6674 14.18ZM65.0754 9.284C65.0934 11.084 65.9214 12.632 67.6674 12.632C69.3954 12.632 70.2234 11.084 70.2234 9.284C70.2234 7.448 69.3954 5.882 67.6674 5.9C65.9214 5.882 65.0934 7.448 65.0754 9.284ZM77.5421 14L74.7341 4.46H76.6781L78.5501 11.444H78.6221L80.4941 4.46H82.4381L84.3101 11.408H84.3821L86.2541 4.46H88.1621L85.3901 14H83.4821L81.5381 7.124H81.3941L79.4501 14H77.5421Z" fill="#5F5548"/>
</svg>
