<svg width="171" height="154" viewBox="0 0 171 154" fill="none" xmlns="http://www.w3.org/2000/svg">
<g filter="url(#filter0_di_278_1900)">
<mask id="path-1-outside-1_278_1900" maskUnits="userSpaceOnUse" x="14.1016" y="14.2974" width="143" height="120" fill="black">
<rect fill="white" x="14.1016" y="14.2974" width="143" height="120"/>
<path d="M85.4014 17.2974C93.4242 17.2974 101.399 23.0195 107.623 31.4546C111.101 30.115 114.554 29.5358 117.828 29.9331V29.9214C132.286 31.662 142.928 52.202 142.961 72.3452C146.046 71.6444 148.275 71.0757 150.503 71.0757C157.528 71.0762 153.416 81.8085 140.87 89.8101C136.208 113.606 113.164 131.676 85.6777 131.676C58.1605 131.676 35.283 113.724 30.5264 90.0483C17.6851 82.0232 13.4195 71.0757 20.5156 71.0757C22.8094 71.0757 25.1036 71.6778 28.332 72.4067C28.3484 52.253 38.9968 31.6754 53.4658 29.9331C56.6198 29.5471 59.9423 30.0697 63.2881 31.3071C69.5 22.9515 77.3786 17.2974 85.4014 17.2974Z"/>
</mask>
<path d="M85.4014 17.2974C93.4242 17.2974 101.399 23.0195 107.623 31.4546C111.101 30.115 114.554 29.5358 117.828 29.9331V29.9214C132.286 31.662 142.928 52.202 142.961 72.3452C146.046 71.6444 148.275 71.0757 150.503 71.0757C157.528 71.0762 153.416 81.8085 140.87 89.8101C136.208 113.606 113.164 131.676 85.6777 131.676C58.1605 131.676 35.283 113.724 30.5264 90.0483C17.6851 82.0232 13.4195 71.0757 20.5156 71.0757C22.8094 71.0757 25.1036 71.6778 28.332 72.4067C28.3484 52.253 38.9968 31.6754 53.4658 29.9331C56.6198 29.5471 59.9423 30.0697 63.2881 31.3071C69.5 22.9515 77.3786 17.2974 85.4014 17.2974Z" fill="url(#paint0_linear_278_1900)"/>
<path d="M85.4014 17.2974V14.8974H85.4014L85.4014 17.2974ZM107.623 31.4546L105.692 32.8795L106.778 34.3519L108.486 33.6942L107.623 31.4546ZM117.828 29.9331L117.539 32.3156L120.228 32.642V29.9331H117.828ZM117.828 29.9214L118.115 27.5386L115.428 27.2151V29.9214H117.828ZM142.961 72.3452L140.561 72.3491L140.566 75.3505L143.493 74.6856L142.961 72.3452ZM150.503 71.0757L150.503 68.6757H150.503V71.0757ZM140.87 89.8101L139.58 87.7866L138.713 88.3395L138.515 89.3486L140.87 89.8101ZM85.6777 131.676V134.076H85.6777L85.6777 131.676ZM30.5264 90.0483L32.8793 89.5756L32.6756 88.5614L31.7983 88.0131L30.5264 90.0483ZM20.5156 71.0757L20.5156 68.6757H20.5156V71.0757ZM28.332 72.4067L27.8034 74.7478L30.7296 75.4085L30.732 72.4087L28.332 72.4067ZM53.4658 29.9331L53.7527 32.3159L53.7574 32.3153L53.4658 29.9331ZM63.2881 31.3071L62.4556 33.5581L64.1416 34.1817L65.2141 32.739L63.2881 31.3071ZM85.4014 17.2974V19.6974C92.2986 19.6974 99.6492 24.6901 105.692 32.8795L107.623 31.4546L109.554 30.0296C103.149 21.3489 94.5497 14.8974 85.4014 14.8974V17.2974ZM107.623 31.4546L108.486 33.6942C111.692 32.4592 114.745 31.9765 117.539 32.3156L117.828 29.9331L118.117 27.5506C114.364 27.0951 110.51 27.7708 106.76 29.215L107.623 31.4546ZM117.828 29.9331H120.228V29.9214H117.828H115.428V29.9331H117.828ZM117.828 29.9214L117.541 32.3042C123.695 33.0451 129.428 37.8684 133.717 45.4179C137.972 52.9057 140.545 62.6652 140.561 72.3491L142.961 72.3452L145.361 72.3413C145.344 61.882 142.58 51.2999 137.891 43.0467C133.237 34.8553 126.419 28.5383 118.115 27.5386L117.828 29.9214ZM142.961 72.3452L143.493 74.6856C146.713 73.9539 148.613 73.4757 150.503 73.4757V71.0757V68.6757C147.936 68.6757 145.378 69.3349 142.429 70.0048L142.961 72.3452ZM150.503 71.0757L150.503 73.4757C151.092 73.4757 151.349 73.5899 151.421 73.631C151.453 73.6497 151.451 73.6453 151.467 73.6893C151.551 73.9222 151.619 74.7818 150.851 76.4279C149.382 79.5756 145.6 83.9469 139.58 87.7866L140.87 89.8101L142.161 91.8335C148.686 87.6716 153.233 82.6761 155.201 78.457C156.151 76.4198 156.714 74.0961 155.985 72.0665C155.594 70.9793 154.859 70.0739 153.821 69.4742C152.821 68.897 151.671 68.6758 150.503 68.6757L150.503 71.0757ZM140.87 89.8101L138.515 89.3486C134.101 111.879 112.165 129.276 85.6777 129.276L85.6777 131.676L85.6777 134.076C114.164 134.076 138.315 115.332 143.225 90.2715L140.87 89.8101ZM85.6777 131.676V129.276C59.1596 129.276 37.3835 111.995 32.8793 89.5756L30.5264 90.0483L28.1734 90.5211C33.1824 115.453 57.1613 134.076 85.6777 134.076V131.676ZM30.5264 90.0483L31.7983 88.0131C25.6359 84.1619 21.7418 79.7283 20.2106 76.5191C19.4095 74.8402 19.462 73.9469 19.5491 73.6944C19.5667 73.6434 19.567 73.6489 19.5954 73.6322C19.6637 73.5922 19.9206 73.4757 20.5156 73.4757V71.0757V68.6757C19.3367 68.6757 18.1745 68.9013 17.168 69.4913C16.1217 70.1046 15.3913 71.0282 15.0116 72.1289C14.304 74.1798 14.8949 76.5249 15.8784 78.5861C17.9162 82.8569 22.5756 87.9096 29.2544 92.0836L30.5264 90.0483ZM20.5156 71.0757L20.5156 73.4757C22.4686 73.4757 24.4187 73.9836 27.8034 74.7478L28.332 72.4067L28.8606 70.0657C25.7885 69.372 23.1502 68.6757 20.5156 68.6757L20.5156 71.0757ZM28.332 72.4067L30.732 72.4087C30.7399 62.7201 33.3109 52.9488 37.5665 45.4502C41.8573 37.8894 47.5944 33.0575 53.7527 32.3159L53.4658 29.9331L53.1789 27.5503C44.8682 28.5511 38.0466 34.8791 33.3919 43.0811C28.7019 51.3452 25.9405 61.9396 25.932 72.4048L28.332 72.4067ZM53.4658 29.9331L53.7574 32.3153C56.448 31.986 59.3804 32.4208 62.4556 33.5581L63.2881 31.3071L64.1206 29.0561C60.5041 27.7186 56.7915 27.1082 53.1743 27.5509L53.4658 29.9331ZM63.2881 31.3071L65.2141 32.739C71.2454 24.6264 78.5003 19.6974 85.4014 19.6974L85.4014 17.2974L85.4014 14.8974C76.2569 14.8974 67.7546 21.2766 61.362 29.8752L63.2881 31.3071Z" fill="url(#paint1_linear_278_1900)" mask="url(#path-1-outside-1_278_1900)"/>
</g>
<path d="M107.672 59.3267C105.431 59.0997 103.061 59.4223 100.679 60.175C96.4083 55.4437 90.9406 52.2417 85.4377 52.2417C79.9348 52.2417 74.5375 55.4079 70.2783 60.0914C67.9786 59.3984 65.7023 59.1117 63.5434 59.3148C51.7045 60.4857 43.5968 76.651 47.1403 89.5307C47.1872 89.686 47.2341 89.8533 47.2811 90.0086C47.2811 90.0205 47.2928 90.0444 47.3045 90.0564C48.8181 104.74 65.3973 116.306 85.6372 116.306C105.877 116.306 122.597 104.633 123.993 89.8533C124.028 89.7457 124.064 89.6263 124.087 89.5187C127.631 76.639 119.523 60.4618 107.684 59.3028L107.672 59.3267Z" fill="url(#paint2_linear_278_1900)"/>
<ellipse opacity="0.7" cx="60.9017" cy="85.0972" rx="6.2" ry="5" fill="#FF9955"/>
<ellipse opacity="0.7" cx="110.101" cy="85.0972" rx="6.2" ry="5" fill="#FF9955"/>
<path d="M102.886 83.0007C105.92 83.0007 108.38 85.1017 108.38 82.0674C108.38 79.033 105.92 76.5732 102.886 76.5732C99.8514 76.5732 97.3916 79.033 97.3916 82.0674C97.3916 85.1017 99.8514 83.0007 102.886 83.0007Z" fill="#231F20"/>
<ellipse cx="101.696" cy="79.6993" rx="1.98829" ry="1.0368" transform="rotate(-17.4796 101.696 79.6993)" fill="#F7F7F7"/>
<path d="M68.0962 83.0007C71.1305 83.0007 73.5903 85.1017 73.5903 82.0674C73.5903 79.033 71.1305 76.5732 68.0962 76.5732C65.0619 76.5732 62.6021 79.033 62.6021 82.0674C62.6021 85.1017 65.0619 83.0007 68.0962 83.0007Z" fill="#231F20"/>
<ellipse cx="66.4963" cy="79.699" rx="1.98829" ry="1.0368" transform="rotate(-25.8369 66.4963 79.699)" fill="#F7F7F7"/>
<path d="M79.5015 85.6973L79.6816 85.8414C82.8769 88.388 88.0661 88.388 91.2614 85.8414" stroke="#231F20" stroke-width="2.40243" stroke-linecap="round" stroke-linejoin="round"/>
<ellipse cx="85.2769" cy="150.733" rx="34.1817" ry="3.0569" fill="#CBC9C2"/>
<defs>
<filter id="filter0_di_278_1900" x="0.635739" y="0.832517" width="169.747" height="147.309" filterUnits="userSpaceOnUse" color-interpolation-filters="sRGB">
<feFlood flood-opacity="0" result="BackgroundImageFix"/>
<feColorMatrix in="SourceAlpha" type="matrix" values="0 0 0 0 0 0 0 0 0 0 0 0 0 0 0 0 0 0 127 0" result="hardAlpha"/>
<feOffset/>
<feGaussianBlur stdDeviation="7.03247"/>
<feComposite in2="hardAlpha" operator="out"/>
<feColorMatrix type="matrix" values="0 0 0 0 1 0 0 0 0 0.75645 0 0 0 0 0.543344 0 0 0 0.7 0"/>
<feBlend mode="normal" in2="BackgroundImageFix" result="effect1_dropShadow_278_1900"/>
<feBlend mode="normal" in="SourceGraphic" in2="effect1_dropShadow_278_1900" result="shape"/>
<feColorMatrix in="SourceAlpha" type="matrix" values="0 0 0 0 0 0 0 0 0 0 0 0 0 0 0 0 0 0 127 0" result="hardAlpha"/>
<feOffset dy="5.60431"/>
<feGaussianBlur stdDeviation="3.82112"/>
<feComposite in2="hardAlpha" operator="arithmetic" k2="-1" k3="1"/>
<feColorMatrix type="matrix" values="0 0 0 0 1 0 0 0 0 0.5 0 0 0 0 0 0 0 0 0.25 0"/>
<feBlend mode="normal" in2="shape" result="effect2_innerShadow_278_1900"/>
</filter>
<linearGradient id="paint0_linear_278_1900" x1="85.5092" y1="17.2974" x2="85.5092" y2="131.676" gradientUnits="userSpaceOnUse">
<stop stop-color="#FFCF99"/>
<stop offset="0.326923" stop-color="#FF8C49"/>
<stop offset="0.692308" stop-color="#FFAE5F"/>
<stop offset="1" stop-color="#FFC859"/>
</linearGradient>
<linearGradient id="paint1_linear_278_1900" x1="85.5092" y1="17.2974" x2="85.5092" y2="131.676" gradientUnits="userSpaceOnUse">
<stop stop-color="#FFB673"/>
<stop offset="0.197115" stop-color="#FF8743"/>
<stop offset="0.576923" stop-color="#FFA444"/>
<stop offset="0.721154" stop-color="#FF9B43"/>
<stop offset="1" stop-color="#FFB845"/>
</linearGradient>
<linearGradient id="paint2_linear_278_1900" x1="85.6137" y1="69.4605" x2="85.6137" y2="99.4667" gradientUnits="userSpaceOnUse">
<stop stop-color="#FFF1D1"/>
<stop offset="1" stop-color="#FFE8A3"/>
</linearGradient>
</defs>
</svg>
