<svg width="16" height="18" viewBox="0 0 16 18" fill="none" xmlns="http://www.w3.org/2000/svg">
<path d="M15.5415 9.5759C15.4581 5.2177 12.7863 2.15102 11.109 0.648981C10.3708 -0.013853 9.2959 -0.013853 8.55767 0.648981C7.94608 1.19802 7.20168 1.95758 6.49742 2.91058C6.02483 2.61188 5.57386 2.36154 5.17849 2.16241C4.31671 1.73 3.2696 1.94335 2.6889 2.67446C1.37306 4.32728 -0.585249 7.55326 0.261088 11.3966C0.560704 12.7535 1.11052 13.772 1.81786 14.5059C3.1862 16.0648 5.3978 17.0776 7.89666 17.0776C11.7392 17.0776 14.9052 14.6823 15.3623 11.5872C15.489 10.9841 15.5569 10.3184 15.5415 9.5759Z" fill="#5F5548"/>
<path d="M11.9555 11.3406C11.911 9.35383 10.4778 7.95647 9.57833 7.27145C9.18297 6.96876 8.60721 6.96876 8.21184 7.27145C7.88319 7.52179 7.48288 7.86771 7.10728 8.30239C6.85276 8.16585 6.61059 8.05205 6.40055 7.96102C5.93847 7.76302 5.37754 7.86089 5.06618 8.19316C4.35946 8.94645 3.31173 10.4189 3.76393 12.169C3.92455 12.788 4.21861 13.2523 4.59915 13.5869C5.33306 14.2969 6.51916 14.7589 7.85848 14.7589C9.91934 14.7589 11.617 13.6665 11.8616 12.2555C11.9283 11.9801 11.9654 11.6774 11.958 11.3383L11.9555 11.3406Z" fill="#F2EFE6"/>
</svg>
