<svg width="53" height="45" viewBox="0 0 53 45" fill="none" xmlns="http://www.w3.org/2000/svg">
<g filter="url(#filter0_d_658_1323)">
<g filter="url(#filter1_d_658_1323)">
<g filter="url(#filter2_d_658_1323)">
<mask id="path-1-outside-1_658_1323" maskUnits="userSpaceOnUse" x="4.06738" y="1" width="45" height="37" fill="black">
<rect fill="white" x="4.06738" y="1" width="45" height="37"/>
<path d="M26.2432 3C28.5577 3.00006 30.8587 4.65054 32.6543 7.08398C33.6576 6.69755 34.6542 6.53088 35.5986 6.64551V6.64258C39.8459 7.15402 42.9494 13.288 42.8447 19.1992C42.9059 19.2037 42.968 19.2107 43.0312 19.2148C44.4612 19.3078 45.3511 19.2521 46.167 19.4707C48.0982 19.9887 46.2277 22.6073 42.2451 23.9189C40.9007 30.785 34.2531 36 26.3223 36C18.3048 35.9998 11.6531 30.7169 10.3721 23.7861C6.65445 22.4381 4.96509 19.9715 6.83398 19.4707C7.61374 19.2618 8.46038 19.3007 9.78223 19.2236C9.67019 13.3076 12.7772 7.15749 17.0293 6.64551C17.9392 6.53414 18.898 6.68497 19.8633 7.04199C21.6555 4.63132 23.9285 3 26.2432 3Z"/>
</mask>
<path d="M26.2432 3C28.5577 3.00006 30.8587 4.65054 32.6543 7.08398C33.6576 6.69755 34.6542 6.53088 35.5986 6.64551V6.64258C39.8459 7.15402 42.9494 13.288 42.8447 19.1992C42.9059 19.2037 42.968 19.2107 43.0312 19.2148C44.4612 19.3078 45.3511 19.2521 46.167 19.4707C48.0982 19.9887 46.2277 22.6073 42.2451 23.9189C40.9007 30.785 34.2531 36 26.3223 36C18.3048 35.9998 11.6531 30.7169 10.3721 23.7861C6.65445 22.4381 4.96509 19.9715 6.83398 19.4707C7.61374 19.2618 8.46038 19.3007 9.78223 19.2236C9.67019 13.3076 12.7772 7.15749 17.0293 6.64551C17.9392 6.53414 18.898 6.68497 19.8633 7.04199C21.6555 4.63132 23.9285 3 26.2432 3Z" fill="url(#paint0_linear_658_1323)"/>
<path d="M26.2432 3L26.2432 1.11H26.2432V3ZM32.6543 7.08398L31.1335 8.20617L31.989 9.36557L33.3336 8.84768L32.6543 7.08398ZM35.5986 6.64551L35.3709 8.52174L37.4886 8.77876V6.64551H35.5986ZM35.5986 6.64258L35.8246 4.76613L33.7086 4.51134V6.64258H35.5986ZM42.8447 19.1992L40.955 19.1658L40.9234 20.9535L42.7066 21.0842L42.8447 19.1992ZM43.0312 19.2148L43.1538 17.3288L43.1535 17.3288L43.0312 19.2148ZM46.167 19.4707L46.6566 17.6452L46.6562 17.6451L46.167 19.4707ZM42.2451 23.9189L41.6539 22.1238L40.603 22.4699L40.3903 23.5558L42.2451 23.9189ZM26.3223 36L26.3222 37.89H26.3223V36ZM10.3721 23.7861L12.2306 23.4426L12.0339 22.3783L11.0164 22.0093L10.3721 23.7861ZM6.83398 19.4707L6.34482 17.6451L6.34482 17.6451L6.83398 19.4707ZM9.78223 19.2236L9.8922 21.1104L11.7063 21.0047L11.6719 19.1878L9.78223 19.2236ZM17.0293 6.64551L17.2552 8.52196L17.2589 8.52151L17.0293 6.64551ZM19.8633 7.04199L19.2077 8.81464L20.5354 9.3057L21.38 8.16962L19.8633 7.04199ZM26.2432 3L26.2431 4.89C27.6715 4.89004 29.4808 5.96638 31.1335 8.20617L32.6543 7.08398L34.1751 5.9618C32.2366 3.3347 29.4439 1.11008 26.2432 1.11L26.2432 3ZM32.6543 7.08398L33.3336 8.84768C34.1225 8.54384 34.8037 8.45289 35.3709 8.52174L35.5986 6.64551L35.8263 4.76928C34.5046 4.60886 33.1927 4.85127 31.975 5.32029L32.6543 7.08398ZM35.5986 6.64551H37.4886V6.64258H35.5986H33.7086V6.64551H35.5986ZM35.5986 6.64258L35.3727 8.51902C36.6349 8.67101 38.0459 9.72698 39.2002 11.8115C40.3253 13.8434 41.0018 16.525 40.955 19.1658L42.8447 19.1992L44.7344 19.2327C44.7923 15.9622 43.9693 12.6212 42.5071 9.98042C41.074 7.39232 38.8097 5.12558 35.8246 4.76613L35.5986 6.64258ZM42.8447 19.1992L42.7066 21.0842C42.7164 21.0849 42.7271 21.0859 42.7656 21.0894C42.7969 21.0922 42.8501 21.0971 42.909 21.1009L43.0312 19.2148L43.1535 17.3288C43.1491 17.3285 43.1396 17.3278 43.1088 17.325C43.0852 17.3228 43.0343 17.318 42.9829 17.3143L42.8447 19.1992ZM43.0312 19.2148L42.9087 21.1009C43.6198 21.1471 44.334 21.1633 44.7356 21.1833C45.205 21.2067 45.4691 21.2404 45.6778 21.2963L46.167 19.4707L46.6562 17.6451C46.0491 17.4824 45.4602 17.4347 44.9233 17.408C44.3184 17.3779 43.8727 17.3755 43.1538 17.3288L43.0312 19.2148ZM46.167 19.4707L45.6774 21.2962C45.6836 21.2978 45.1184 21.0865 45.0484 20.3885C45.007 19.9759 45.2136 19.8921 44.962 20.1991C44.5351 20.7199 43.4261 21.5401 41.6539 22.1238L42.2451 23.9189L42.8363 25.7141C45.0468 24.9861 46.8643 23.8412 47.8854 22.5953C48.3579 22.0189 48.9189 21.1014 48.8095 20.0112C48.6715 18.6355 47.616 17.9025 46.6566 17.6452L46.167 19.4707ZM42.2451 23.9189L40.3903 23.5558C39.241 29.4256 33.4654 34.11 26.3223 34.11V36V37.89C35.0407 37.89 42.5604 32.1444 44.0999 24.2821L42.2451 23.9189ZM26.3223 36L26.3223 34.11C19.0982 34.1099 13.3254 29.366 12.2306 23.4426L10.3721 23.7861L8.51355 24.1296C9.98075 32.0677 17.5115 37.8898 26.3222 37.89L26.3223 36ZM10.3721 23.7861L11.0164 22.0093C9.36301 21.4098 8.3668 20.6262 8.00502 20.1569C7.79201 19.8805 8.00842 20.0034 7.94638 20.4354C7.84928 21.1115 7.30661 21.3007 7.32315 21.2963L6.83398 19.4707L6.34482 17.6451C5.42691 17.8911 4.39457 18.5764 4.20477 19.898C4.05004 20.9754 4.57073 21.8931 5.01114 22.4645C5.95622 23.6906 7.66351 24.8144 9.72778 25.5629L10.3721 23.7861ZM6.83398 19.4707L7.32315 21.2963C7.52323 21.2427 7.77574 21.2086 8.20834 21.1849C8.42497 21.173 8.65796 21.1648 8.94471 21.154C9.22468 21.1435 9.54145 21.1309 9.8922 21.1104L9.78223 19.2236L9.67225 17.3368C9.36208 17.3549 9.07732 17.3663 8.80241 17.3767C8.53428 17.3868 8.25903 17.3964 8.0013 17.4105C7.48518 17.4389 6.9245 17.4898 6.34482 17.6451L6.83398 19.4707ZM9.78223 19.2236L11.6719 19.1878C11.6218 16.5455 12.2973 13.859 13.4233 11.8225C14.5785 9.73288 15.9918 8.67409 17.2552 8.52195L17.0293 6.64551L16.8034 4.76906C13.8147 5.12891 11.5484 7.40115 10.1152 9.99358C8.65258 12.6391 7.83057 15.9857 7.89257 19.2594L9.78223 19.2236ZM17.0293 6.64551L17.2589 8.52151C17.8039 8.45481 18.4554 8.53643 19.2077 8.81464L19.8633 7.04199L20.5189 5.26935C19.3405 4.83352 18.0746 4.61348 16.7997 4.76951L17.0293 6.64551ZM19.8633 7.04199L21.38 8.16962C23.03 5.95027 24.8119 4.89 26.2432 4.89V3V1.11C23.0451 1.11 20.281 3.31236 18.3465 5.91436L19.8633 7.04199Z" fill="#F7F7F7" mask="url(#path-1-outside-1_658_1323)"/>
</g>
<path d="M32.668 15.1256C32.0214 15.0602 31.3376 15.1532 30.6504 15.3704C29.4182 14.0054 27.8407 13.0815 26.2531 13.0815C24.6654 13.0815 23.1082 13.995 21.8794 15.3463C21.2159 15.1463 20.5592 15.0636 19.9363 15.1222C16.5207 15.46 14.1815 20.1239 15.2038 23.8398C15.2174 23.8846 15.2309 23.9329 15.2445 23.9777C15.2445 23.9811 15.2478 23.988 15.2512 23.9915C15.6879 28.2279 20.4712 31.5647 26.3106 31.5647C32.15 31.5647 36.9739 28.1969 37.3767 23.9329C37.3869 23.9019 37.3971 23.8674 37.4038 23.8364C38.4262 20.1204 36.087 15.4531 32.6714 15.1188L32.668 15.1256Z" fill="url(#paint1_linear_658_1323)"/>
<path d="M21.5406 23.0758C22.3048 23.0758 22.9244 22.4562 22.9244 21.6919C22.9244 20.9277 22.3048 20.3081 21.5406 20.3081C20.7763 20.3081 20.1567 20.9277 20.1567 21.6919C20.1567 22.4562 20.7763 23.0758 21.5406 23.0758Z" fill="#231F20"/>
<ellipse cx="0.427768" cy="0.26633" rx="0.427768" ry="0.26633" transform="matrix(0.756959 -0.653462 0.516981 0.855997 20.7046 21.3691)" fill="#F7F7F7"/>
<path d="M30.8985 23.0758C31.6627 23.0758 32.2823 22.4562 32.2823 21.6919C32.2823 20.9277 31.6627 20.3081 30.8985 20.3081C30.1342 20.3081 29.5146 20.9277 29.5146 21.6919C29.5146 22.4562 30.1342 23.0758 30.8985 23.0758Z" fill="#231F20"/>
<ellipse cx="0.427768" cy="0.26633" rx="0.427768" ry="0.26633" transform="matrix(0.756959 -0.653462 0.516981 0.855997 30.168 21.3691)" fill="#F7F7F7"/>
<path d="M24.5405 22.7744L24.5925 22.816C25.5144 23.5507 27.0115 23.5507 27.9334 22.816" stroke="#231F20" stroke-width="0.727784" stroke-linecap="round" stroke-linejoin="round"/>
</g>
</g>
<defs>
<filter id="filter0_d_658_1323" x="0.176758" y="0.109863" width="52.6465" height="44.7803" filterUnits="userSpaceOnUse" color-interpolation-filters="sRGB">
<feFlood flood-opacity="0" result="BackgroundImageFix"/>
<feColorMatrix in="SourceAlpha" type="matrix" values="0 0 0 0 0 0 0 0 0 0 0 0 0 0 0 0 0 0 127 0" result="hardAlpha"/>
<feOffset dy="3"/>
<feGaussianBlur stdDeviation="2"/>
<feComposite in2="hardAlpha" operator="out"/>
<feColorMatrix type="matrix" values="0 0 0 0 0 0 0 0 0 0 0 0 0 0 0 0 0 0 0.05 0"/>
<feBlend mode="normal" in2="BackgroundImageFix" result="effect1_dropShadow_658_1323"/>
<feBlend mode="normal" in="SourceGraphic" in2="effect1_dropShadow_658_1323" result="shape"/>
</filter>
<filter id="filter1_d_658_1323" x="0.176758" y="0.109863" width="52.6465" height="44.7803" filterUnits="userSpaceOnUse" color-interpolation-filters="sRGB">
<feFlood flood-opacity="0" result="BackgroundImageFix"/>
<feColorMatrix in="SourceAlpha" type="matrix" values="0 0 0 0 0 0 0 0 0 0 0 0 0 0 0 0 0 0 127 0" result="hardAlpha"/>
<feOffset dy="3"/>
<feGaussianBlur stdDeviation="2"/>
<feComposite in2="hardAlpha" operator="out"/>
<feColorMatrix type="matrix" values="0 0 0 0 0 0 0 0 0 0 0 0 0 0 0 0 0 0 0.05 0"/>
<feBlend mode="normal" in2="BackgroundImageFix" result="effect1_dropShadow_658_1323"/>
<feBlend mode="normal" in="SourceGraphic" in2="effect1_dropShadow_658_1323" result="shape"/>
</filter>
<filter id="filter2_d_658_1323" x="0.176758" y="0.109863" width="52.6465" height="44.7803" filterUnits="userSpaceOnUse" color-interpolation-filters="sRGB">
<feFlood flood-opacity="0" result="BackgroundImageFix"/>
<feColorMatrix in="SourceAlpha" type="matrix" values="0 0 0 0 0 0 0 0 0 0 0 0 0 0 0 0 0 0 127 0" result="hardAlpha"/>
<feOffset dy="3"/>
<feGaussianBlur stdDeviation="2"/>
<feComposite in2="hardAlpha" operator="out"/>
<feColorMatrix type="matrix" values="0 0 0 0 0 0 0 0 0 0 0 0 0 0 0 0 0 0 0.05 0"/>
<feBlend mode="normal" in2="BackgroundImageFix" result="effect1_dropShadow_658_1323"/>
<feBlend mode="normal" in="SourceGraphic" in2="effect1_dropShadow_658_1323" result="shape"/>
</filter>
<linearGradient id="paint0_linear_658_1323" x1="26.5002" y1="3" x2="26.5002" y2="36" gradientUnits="userSpaceOnUse">
<stop stop-color="#FFCF99"/>
<stop offset="0.326923" stop-color="#FF8C49"/>
<stop offset="0.692308" stop-color="#FFAE5F"/>
<stop offset="1" stop-color="#FFC859"/>
</linearGradient>
<linearGradient id="paint1_linear_658_1323" x1="26.3038" y1="18.0493" x2="26.3038" y2="26.7065" gradientUnits="userSpaceOnUse">
<stop stop-color="#FFF1D1"/>
<stop offset="1" stop-color="#FFE8A3"/>
</linearGradient>
</defs>
</svg>
