<svg width="55" height="47" viewBox="0 0 55 47" fill="none" xmlns="http://www.w3.org/2000/svg">
<g filter="url(#filter0_d_658_1299)">
<mask id="path-1-outside-1_658_1299" maskUnits="userSpaceOnUse" x="4.77686" y="1.17529" width="46" height="39" fill="black">
<rect fill="white" x="4.77686" y="1.17529" width="46" height="39"/>
<path d="M27.4673 3.17529C29.8977 3.17529 32.3133 4.90906 34.1987 7.46436C35.2522 7.05856 36.2988 6.8831 37.2905 7.00342V6.99951C41.8747 7.5514 45.1925 14.3419 44.8843 20.7036C48.2003 23.0674 49.1983 25.9653 47.189 25.9653C46.3578 25.9653 45.5262 25.7054 44.2104 25.4302C42.6708 32.4958 35.7665 37.8246 27.5513 37.8247C19.2912 37.8247 12.4108 32.4849 10.8843 25.4097C9.51337 25.6919 8.66196 25.9653 7.81104 25.9653C5.78587 25.9651 6.81614 23.0208 10.1958 20.647C9.91172 14.3046 13.224 7.55354 17.7935 7.00342C18.7487 6.88656 19.7547 7.04467 20.7681 7.41943C22.6498 4.88828 25.037 3.17539 27.4673 3.17529Z"/>
</mask>
<path d="M27.4673 3.17529C29.8977 3.17529 32.3133 4.90906 34.1987 7.46436C35.2522 7.05856 36.2988 6.8831 37.2905 7.00342V6.99951C41.8747 7.5514 45.1925 14.3419 44.8843 20.7036C48.2003 23.0674 49.1983 25.9653 47.189 25.9653C46.3578 25.9653 45.5262 25.7054 44.2104 25.4302C42.6708 32.4958 35.7665 37.8246 27.5513 37.8247C19.2912 37.8247 12.4108 32.4849 10.8843 25.4097C9.51337 25.6919 8.66196 25.9653 7.81104 25.9653C5.78587 25.9651 6.81614 23.0208 10.1958 20.647C9.91172 14.3046 13.224 7.55354 17.7935 7.00342C18.7487 6.88656 19.7547 7.04467 20.7681 7.41943C22.6498 4.88828 25.037 3.17539 27.4673 3.17529Z" fill="url(#paint0_linear_658_1299)"/>
<path d="M27.4673 3.17529V1.28529H27.4672L27.4673 3.17529ZM34.1987 7.46436L32.6779 8.58651L33.5335 9.74599L34.8781 9.22803L34.1987 7.46436ZM37.2905 7.00342L37.0629 8.87966L39.1805 9.13659V7.00342H37.2905ZM37.2905 6.99951L37.5164 5.12306L35.4005 4.86833V6.99951H37.2905ZM44.8843 20.7036L42.9965 20.6122L42.9465 21.6433L43.7872 22.2426L44.8843 20.7036ZM47.189 25.9653V27.8553H47.189L47.189 25.9653ZM44.2104 25.4302L44.5974 23.5802L42.7628 23.1965L42.3638 25.0278L44.2104 25.4302ZM27.5513 37.8247V39.7147H27.5513L27.5513 37.8247ZM10.8843 25.4097L12.7318 25.0111L12.3369 23.181L10.5032 23.5585L10.8843 25.4097ZM7.81104 25.9653L7.81083 27.8553H7.81104V25.9653ZM10.1958 20.647L11.2821 22.1936L12.1303 21.5979L12.0839 20.5624L10.1958 20.647ZM17.7935 7.00342L18.0194 8.87987L18.0229 8.87943L17.7935 7.00342ZM20.7681 7.41943L20.1125 9.1921L21.4402 9.68311L22.2848 8.54706L20.7681 7.41943ZM27.4673 3.17529V5.06529C29.0112 5.06529 30.935 6.22445 32.6779 8.58651L34.1987 7.46436L35.7195 6.3422C33.6915 3.59368 30.7842 1.28529 27.4673 1.28529V3.17529ZM34.1987 7.46436L34.8781 9.22803C35.7176 8.90464 36.4488 8.80516 37.0629 8.87966L37.2905 7.00342L37.5182 5.12718C36.1488 4.96104 34.7867 5.21249 33.5194 5.70068L34.1987 7.46436ZM37.2905 7.00342H39.1805V6.99951H37.2905H35.4005V7.00342H37.2905ZM37.2905 6.99951L37.0646 8.87596C38.4727 9.04548 40.0228 10.2489 41.2538 12.5611C42.4533 14.814 43.1345 17.7624 42.9965 20.6122L44.8843 20.7036L46.7721 20.7951C46.9422 17.2831 46.1187 13.6553 44.5903 10.7847C43.0935 7.97315 40.6926 5.50544 37.5164 5.12306L37.2905 6.99951ZM44.8843 20.7036L43.7872 22.2426C45.2701 23.2997 46.0493 24.3559 46.2817 24.93C46.4166 25.2632 46.2427 25.0973 46.4158 24.7079C46.6838 24.105 47.2323 24.0753 47.1889 24.0753L47.189 25.9653L47.189 27.8553C48.1504 27.8553 49.3276 27.4634 49.8699 26.2433C50.3174 25.2366 50.0635 24.1985 49.7856 23.5118C49.1923 22.046 47.8144 20.4713 45.9813 19.1646L44.8843 20.7036ZM47.189 25.9653V24.0753C46.9671 24.0753 46.7003 24.0411 46.2675 23.9508C46.051 23.9056 45.8182 23.8521 45.5351 23.7874C45.2582 23.7241 44.9448 23.6529 44.5974 23.5802L44.2104 25.4302L43.8235 27.2801C44.134 27.3451 44.4179 27.4095 44.693 27.4724C44.9618 27.5338 45.2355 27.5969 45.4953 27.6511C46.0151 27.7596 46.5797 27.8553 47.189 27.8553V25.9653ZM44.2104 25.4302L42.3638 25.0278C41.0358 31.1221 34.9876 35.9346 27.5512 35.9347L27.5513 37.8247L27.5513 39.7147C36.5455 39.7146 44.3058 33.8695 46.0571 25.8326L44.2104 25.4302ZM27.5513 37.8247V35.9347C20.072 35.9347 14.0484 31.1135 12.7318 25.0111L10.8843 25.4097L9.03679 25.8083C10.7732 33.8563 18.5103 39.7147 27.5513 39.7147V37.8247ZM10.8843 25.4097L10.5032 23.5585C10.1398 23.6333 9.81342 23.707 9.52441 23.773C9.22851 23.8407 8.98779 23.8965 8.76202 23.9442C8.31139 24.0393 8.0382 24.0753 7.81104 24.0753V25.9653V27.8553C8.4348 27.8553 9.01277 27.7546 9.54331 27.6425C9.80812 27.5866 10.0905 27.5211 10.3664 27.4581C10.6492 27.3935 10.9433 27.3272 11.2654 27.2608L10.8843 25.4097ZM7.81104 25.9653L7.81124 24.0753C7.76994 24.0753 8.32513 24.1081 8.58882 24.718C8.75603 25.1047 8.58148 25.2613 8.7233 24.9182C8.96736 24.3277 9.77048 23.2553 11.2821 22.1936L10.1958 20.647L9.10949 19.1004C7.24146 20.4124 5.83962 21.9991 5.22992 23.4743C4.94485 24.164 4.68123 25.2051 5.11922 26.2181C5.6537 27.4543 6.83955 27.8552 7.81083 27.8553L7.81104 25.9653ZM10.1958 20.647L12.0839 20.5624C11.9566 17.7206 12.6422 14.7857 13.8411 12.5446C15.0712 10.245 16.6161 9.0488 18.0194 8.87987L17.7935 7.00342L17.5676 5.12697C14.4013 5.50816 12.0053 7.96256 10.508 10.7616C8.97938 13.6191 8.1509 17.231 8.30769 20.7315L10.1958 20.647ZM17.7935 7.00342L18.0229 8.87943C18.6136 8.80718 19.3124 8.8962 20.1125 9.1921L20.7681 7.41943L21.4236 5.64677C20.197 5.19315 18.8839 4.96594 17.564 5.1274L17.7935 7.00342ZM20.7681 7.41943L22.2848 8.54706C24.0243 6.20737 25.9203 5.06535 27.4674 5.06529L27.4673 3.17529L27.4672 1.28529C24.1537 1.28542 21.2754 3.56919 19.2513 6.2918L20.7681 7.41943Z" fill="#F7F7F7" mask="url(#path-1-outside-1_658_1299)"/>
</g>
<path d="M34.2139 15.9075C33.535 15.8388 32.817 15.9365 32.0955 16.1645C30.8017 14.7312 29.1453 13.7612 27.4783 13.7612C25.8112 13.7612 24.1762 14.7204 22.8859 16.1392C22.1893 15.9293 21.4997 15.8424 20.8457 15.9039C17.2593 16.2586 14.8031 21.1557 15.8766 25.0574C15.8908 25.1045 15.905 25.1551 15.9192 25.2022C15.9192 25.2058 15.9228 25.213 15.9263 25.2167C16.3849 29.6649 21.4073 33.1685 27.5387 33.1685C33.6701 33.1685 38.7352 29.6323 39.1581 25.1551C39.1688 25.1226 39.1795 25.0864 39.1866 25.0538C40.26 21.1521 37.8039 16.2514 34.2175 15.9003L34.2139 15.9075Z" fill="url(#paint1_linear_658_1299)"/>
<path d="M22.6519 24.364C23.4478 24.364 24.093 23.7188 24.093 22.9229C24.093 22.1271 23.4478 21.4819 22.6519 21.4819C21.8561 21.4819 21.2109 22.1271 21.2109 22.9229C21.2109 23.7188 21.8561 24.364 22.6519 24.364Z" fill="#231F20"/>
<ellipse cx="0.449157" cy="0.279647" rx="0.449157" ry="0.279647" transform="matrix(0.756959 -0.653462 0.516981 0.855997 21.6577 22.4629)" fill="#F7F7F7"/>
<path d="M32.4774 24.0149C33.0803 24.0149 33.5691 23.5261 33.5691 22.9232C33.5691 22.3203 33.0803 21.8315 32.4774 21.8315C31.8745 21.8315 31.3857 22.3203 31.3857 22.9232C31.3857 23.5261 31.8745 24.0149 32.4774 24.0149Z" fill="#231F20"/>
<path d="M32.4771 24.364C33.273 24.364 33.9182 23.7188 33.9182 22.9229C33.9182 22.1271 33.273 21.4819 32.4771 21.4819C31.6813 21.4819 31.0361 22.1271 31.0361 22.9229C31.0361 23.7188 31.6813 24.364 32.4771 24.364Z" fill="#231F20"/>
<ellipse cx="0.449157" cy="0.279647" rx="0.449157" ry="0.279647" transform="matrix(0.756959 -0.653462 0.516981 0.855997 31.5942 22.4629)" fill="#F7F7F7"/>
<path d="M25.8013 24.6821L25.8559 24.6385C26.8918 24.0403 28.3459 24.078 29.3638 24.6385" stroke="#231F20" stroke-width="0.727784" stroke-linecap="round" stroke-linejoin="round"/>
<path d="M33.8351 27.3248C33.8351 27.8238 33.412 28.2283 32.89 28.2283C32.368 28.2283 31.9448 27.8238 31.9448 27.3248C31.9448 26.9948 32.3584 26.065 32.6384 25.4734C32.7404 25.2579 33.0395 25.2579 33.1415 25.4734C33.4215 26.065 33.8351 26.9948 33.8351 27.3248Z" fill="#FF9955"/>
<defs>
<filter id="filter0_d_658_1299" x="0.886719" y="0.285156" width="53.2271" height="46.4297" filterUnits="userSpaceOnUse" color-interpolation-filters="sRGB">
<feFlood flood-opacity="0" result="BackgroundImageFix"/>
<feColorMatrix in="SourceAlpha" type="matrix" values="0 0 0 0 0 0 0 0 0 0 0 0 0 0 0 0 0 0 127 0" result="hardAlpha"/>
<feOffset dy="3"/>
<feGaussianBlur stdDeviation="2"/>
<feComposite in2="hardAlpha" operator="out"/>
<feColorMatrix type="matrix" values="0 0 0 0 0 0 0 0 0 0 0 0 0 0 0 0 0 0 0.05 0"/>
<feBlend mode="normal" in2="BackgroundImageFix" result="effect1_dropShadow_658_1299"/>
<feBlend mode="normal" in="SourceGraphic" in2="effect1_dropShadow_658_1299" result="shape"/>
</filter>
<linearGradient id="paint0_linear_658_1299" x1="27.5" y1="3.17529" x2="27.5" y2="37.8248" gradientUnits="userSpaceOnUse">
<stop stop-color="#FFCF99"/>
<stop offset="0.326923" stop-color="#FF8C49"/>
<stop offset="0.692308" stop-color="#FFAE5F"/>
<stop offset="1" stop-color="#FFC859"/>
</linearGradient>
<linearGradient id="paint1_linear_658_1299" x1="27.5316" y1="18.9774" x2="27.5316" y2="28.0674" gradientUnits="userSpaceOnUse">
<stop stop-color="#FFF1D1"/>
<stop offset="1" stop-color="#FFE8A3"/>
</linearGradient>
</defs>
</svg>
