<svg width="53" height="47" viewBox="0 0 53 47" fill="none" xmlns="http://www.w3.org/2000/svg">
<g filter="url(#filter0_d_658_1375)">
<g filter="url(#filter1_d_658_1375)">
<mask id="path-1-outside-1_658_1375" maskUnits="userSpaceOnUse" x="4.09766" y="1.1748" width="45" height="39" fill="black">
<rect fill="white" x="4.09766" y="1.1748" width="45" height="39"/>
<path d="M26.209 3.1748C28.6394 3.17484 31.055 4.90856 32.9404 7.46387C33.994 7.05805 35.0405 6.88257 36.0322 7.00293V6.99902C40.2647 7.50857 43.4173 13.3362 43.6338 19.2344C44.336 18.8529 44.8928 18.5593 45.4844 18.3809C47.9757 17.6295 47.2373 22.0441 42.8379 25.9121C41.0956 32.7367 34.3195 37.8252 26.292 37.8252C18.0376 37.825 11.1616 32.4919 9.62891 25.4238C5.70645 21.6833 5.1276 17.661 7.51465 18.3809C7.98308 18.5221 8.43002 18.7349 8.94434 19.0068C9.23386 13.1899 12.3575 7.50601 16.5342 7.00293C17.4896 6.886 18.4962 7.04407 19.5098 7.41895C21.3916 4.88769 23.7786 3.1748 26.209 3.1748Z"/>
</mask>
<path d="M26.209 3.1748C28.6394 3.17484 31.055 4.90856 32.9404 7.46387C33.994 7.05805 35.0405 6.88257 36.0322 7.00293V6.99902C40.2647 7.50857 43.4173 13.3362 43.6338 19.2344C44.336 18.8529 44.8928 18.5593 45.4844 18.3809C47.9757 17.6295 47.2373 22.0441 42.8379 25.9121C41.0956 32.7367 34.3195 37.8252 26.292 37.8252C18.0376 37.825 11.1616 32.4919 9.62891 25.4238C5.70645 21.6833 5.1276 17.661 7.51465 18.3809C7.98308 18.5221 8.43002 18.7349 8.94434 19.0068C9.23386 13.1899 12.3575 7.50601 16.5342 7.00293C17.4896 6.886 18.4962 7.04407 19.5098 7.41895C21.3916 4.88769 23.7786 3.1748 26.209 3.1748Z" fill="url(#paint0_linear_658_1375)"/>
<path d="M26.209 3.1748L26.209 1.2848H26.209V3.1748ZM32.9404 7.46387L31.4196 8.58602L32.2752 9.7455L33.6198 9.22754L32.9404 7.46387ZM36.0322 7.00293L35.8045 8.87916L37.9222 9.13615V7.00293H36.0322ZM36.0322 6.99902L36.2581 5.12257L34.1422 4.86784V6.99902H36.0322ZM43.6338 19.2344L41.7451 19.3037L41.8569 22.3505L44.536 20.8951L43.6338 19.2344ZM45.4844 18.3809L44.9387 16.5714L44.9385 16.5714L45.4844 18.3809ZM42.8379 25.9121L41.5899 24.4927L41.1511 24.8785L41.0066 25.4446L42.8379 25.9121ZM26.292 37.8252L26.2919 39.7152H26.292V37.8252ZM9.62891 25.4238L11.476 25.0233L11.353 24.4564L10.9332 24.0561L9.62891 25.4238ZM7.51465 18.3809L8.0604 16.5714L8.06036 16.5714L7.51465 18.3809ZM8.94434 19.0068L8.06086 20.6776L10.6845 22.0649L10.832 19.1008L8.94434 19.0068ZM16.5342 7.00293L16.7602 8.87937L16.7638 8.87893L16.5342 7.00293ZM19.5098 7.41895L18.8542 9.19159L20.1819 9.68266L21.0265 8.54657L19.5098 7.41895ZM26.209 3.1748L26.209 5.0648C27.7529 5.06483 29.6767 6.22397 31.4196 8.58602L32.9404 7.46387L34.4612 6.34171C32.4332 3.59316 29.5259 1.28485 26.209 1.2848L26.209 3.1748ZM32.9404 7.46387L33.6198 9.22754C34.4594 8.90411 35.1905 8.80465 35.8045 8.87916L36.0322 7.00293L36.2599 5.12669C34.8904 4.9605 33.5285 5.21199 32.2611 5.70019L32.9404 7.46387ZM36.0322 7.00293H37.9222V6.99902H36.0322H34.1422V7.00293H36.0322ZM36.0322 6.99902L35.8063 8.87547C37.1031 9.0316 38.5221 10.0592 39.715 12.0628C40.8832 14.025 41.6474 16.6429 41.7451 19.3037L43.6338 19.2344L45.5225 19.165C45.4037 15.9277 44.4832 12.6827 42.963 10.1291C41.4673 7.61704 39.1938 5.476 36.2581 5.12257L36.0322 6.99902ZM43.6338 19.2344L44.536 20.8951C45.261 20.5013 45.6531 20.3041 46.0302 20.1903L45.4844 18.3809L44.9385 16.5714C44.1325 16.8146 43.411 17.2045 42.7316 17.5736L43.6338 19.2344ZM45.4844 18.3809L46.0301 20.1904C46.1292 20.1605 46.0134 20.2192 45.7757 20.1553C45.4849 20.0771 45.2384 19.8754 45.1028 19.6402C44.9208 19.3241 45.1009 19.2843 44.9267 19.899C44.6285 20.9515 43.5971 22.728 41.5899 24.4927L42.8379 25.9121L44.0859 27.3315C46.4781 25.2282 48.0155 22.8634 48.5635 20.9295C48.8125 20.0509 48.985 18.8066 48.3782 17.7533C48.0303 17.1494 47.4671 16.6958 46.7571 16.5049C46.1 16.3283 45.4623 16.4134 44.9387 16.5714L45.4844 18.3809ZM42.8379 25.9121L41.0066 25.4446C39.5016 31.3399 33.555 35.9352 26.292 35.9352V37.8252V39.7152C35.0841 39.7152 42.6896 34.1336 44.6692 26.3796L42.8379 25.9121ZM26.292 37.8252L26.292 35.9352C18.8182 35.935 12.7981 31.12 11.476 25.0233L9.62891 25.4238L7.78184 25.8244C9.52522 33.8638 17.257 39.715 26.2919 39.7152L26.292 37.8252ZM9.62891 25.4238L10.9332 24.0561C9.14485 22.3506 8.26813 20.7114 8.04211 19.7827C7.90897 19.2357 8.08972 19.3496 7.8649 19.691C7.70944 19.9271 7.45779 20.1004 7.19359 20.1628C6.97624 20.2141 6.87528 20.1621 6.96893 20.1904L7.51465 18.3809L8.06036 16.5714C7.55725 16.4196 6.95221 16.3358 6.32495 16.484C5.65083 16.6431 5.08342 17.0418 4.70784 17.6122C4.04278 18.6222 4.16582 19.8405 4.36932 20.6766C4.81658 22.5143 6.19051 24.7565 8.32457 26.7916L9.62891 25.4238ZM7.51465 18.3809L6.9689 20.1903C7.25802 20.2776 7.57501 20.4207 8.06086 20.6776L8.94434 19.0068L9.82781 17.336C9.28502 17.049 8.70813 16.7667 8.0604 16.5714L7.51465 18.3809ZM8.94434 19.0068L10.832 19.1008C10.9627 16.4743 11.7367 13.909 12.8981 11.9913C14.0832 10.0348 15.4812 9.03342 16.7602 8.87937L16.5342 7.00293L16.3082 5.12649C13.4104 5.47552 11.1583 7.5676 9.66497 10.033C8.1481 12.5374 7.21547 15.7224 7.05667 18.9129L8.94434 19.0068ZM16.5342 7.00293L16.7638 8.87893C17.3546 8.80662 18.054 8.89566 18.8542 9.19159L19.5098 7.41895L20.1654 5.6463C18.9383 5.19248 17.6246 4.96537 16.3046 5.12693L16.5342 7.00293ZM19.5098 7.41895L21.0265 8.54657C22.7661 6.20672 24.6619 5.0648 26.209 5.0648V3.1748V1.2848C22.8952 1.2848 20.0172 3.56866 17.993 6.29132L19.5098 7.41895Z" fill="#F7F7F7" mask="url(#path-1-outside-1_658_1375)"/>
</g>
<path d="M33.1712 15.9071C32.4923 15.8383 31.7743 15.936 31.0527 16.1641C29.7589 14.7308 28.1025 13.7607 26.4355 13.7607C24.7684 13.7607 23.1333 14.7199 21.8431 16.1387C21.1464 15.9288 20.4568 15.8419 19.8028 15.9035C16.2163 16.2582 13.7602 21.1553 14.8336 25.0571C14.8478 25.1041 14.862 25.1548 14.8763 25.2019C14.8763 25.2055 14.8798 25.2127 14.8834 25.2163C15.3419 29.6647 20.3644 33.1683 26.4959 33.1683C32.6274 33.1683 37.6925 29.6321 38.1155 25.1548C38.1262 25.1222 38.1368 25.086 38.1439 25.0535C39.2174 21.1517 36.7612 16.2509 33.1748 15.8998L33.1712 15.9071Z" fill="url(#paint1_linear_658_1375)"/>
<path d="M26.3944 26.3863C25.0234 26.3863 24.6137 24.2106 24.5138 23.4683C24.4963 23.338 24.6019 23.229 24.7332 23.2344C25.1156 23.2503 25.8617 23.2782 26.3944 23.2782C26.927 23.2782 27.6731 23.2503 28.0555 23.2344C28.1869 23.229 28.2924 23.338 28.2749 23.4683C28.175 24.2106 27.7653 26.3863 26.3944 26.3863Z" fill="#FF812C"/>
<path d="M27.2121 23.7808C27.2121 24.0754 26.8458 24.3142 26.3941 24.3142C25.9424 24.3142 25.5762 24.0754 25.5762 23.7808C25.5762 23.4863 25.9424 23.5586 26.3941 23.5586C26.8458 23.5586 27.2121 23.4863 27.2121 23.7808Z" fill="#F7F7F7"/>
<ellipse opacity="0.6" cx="18.639" cy="24.0777" rx="1.87823" ry="1.5147" fill="#FF9955"/>
<ellipse opacity="0.6" cx="34.1492" cy="24.0777" rx="1.87823" ry="1.5147" fill="#FF9955"/>
<path d="M20.9804 20.6598C21.1238 20.5087 21.3645 20.5087 21.5079 20.6598L22.0952 21.2789C22.1259 21.3112 22.1622 21.3376 22.2025 21.3568L22.9727 21.7241C23.1607 21.8137 23.2351 22.0427 23.1357 22.2257L22.7284 22.9756C22.7072 23.0147 22.6933 23.0575 22.6875 23.1017L22.5762 23.9477C22.549 24.1542 22.3543 24.2957 22.1495 24.2577L21.3105 24.1021C21.2666 24.094 21.2217 24.094 21.1779 24.1021L20.3389 24.2577C20.1341 24.2957 19.9393 24.1542 19.9121 23.9477L19.8009 23.1017C19.795 23.0575 19.7812 23.0147 19.7599 22.9756L19.3526 22.2257C19.2532 22.0427 19.3276 21.8137 19.5156 21.7241L20.2859 21.3568C20.3261 21.3376 20.3624 21.3112 20.3931 21.2789L20.9804 20.6598Z" fill="#231F20"/>
<ellipse cx="20.7422" cy="21.9441" rx="0.752917" ry="0.392611" transform="rotate(-27.6569 20.7422 21.9441)" fill="#F7F7F7"/>
<path d="M31.4018 20.6598C31.5452 20.5087 31.7859 20.5087 31.9293 20.6598L32.5166 21.2789C32.5473 21.3112 32.5836 21.3376 32.6238 21.3568L33.3941 21.7241C33.5821 21.8137 33.6565 22.0427 33.5571 22.2257L33.1498 22.9756C33.1285 23.0147 33.1147 23.0575 33.1088 23.1017L32.9976 23.9477C32.9704 24.1542 32.7756 24.2957 32.5709 24.2577L31.7318 24.1021C31.688 24.094 31.6431 24.094 31.5993 24.1021L30.7602 24.2577C30.5554 24.2957 30.3607 24.1542 30.3335 23.9477L30.2222 23.1017C30.2164 23.0575 30.2025 23.0147 30.1813 22.9756L29.774 22.2257C29.6746 22.0427 29.749 21.8137 29.937 21.7241L30.7072 21.3568C30.7475 21.3376 30.7838 21.3112 30.8145 21.2789L31.4018 20.6598Z" fill="#231F20"/>
<ellipse cx="31.2847" cy="21.9441" rx="0.752917" ry="0.392611" transform="rotate(-27.6569 31.2847 21.9441)" fill="#F7F7F7"/>
</g>
<defs>
<filter id="filter0_d_658_1375" x="0.20752" y="0.284668" width="52.5845" height="46.4307" filterUnits="userSpaceOnUse" color-interpolation-filters="sRGB">
<feFlood flood-opacity="0" result="BackgroundImageFix"/>
<feColorMatrix in="SourceAlpha" type="matrix" values="0 0 0 0 0 0 0 0 0 0 0 0 0 0 0 0 0 0 127 0" result="hardAlpha"/>
<feOffset dy="3"/>
<feGaussianBlur stdDeviation="2"/>
<feComposite in2="hardAlpha" operator="out"/>
<feColorMatrix type="matrix" values="0 0 0 0 0 0 0 0 0 0 0 0 0 0 0 0 0 0 0.05 0"/>
<feBlend mode="normal" in2="BackgroundImageFix" result="effect1_dropShadow_658_1375"/>
<feBlend mode="normal" in="SourceGraphic" in2="effect1_dropShadow_658_1375" result="shape"/>
</filter>
<filter id="filter1_d_658_1375" x="0.20752" y="0.284668" width="52.5845" height="46.4307" filterUnits="userSpaceOnUse" color-interpolation-filters="sRGB">
<feFlood flood-opacity="0" result="BackgroundImageFix"/>
<feColorMatrix in="SourceAlpha" type="matrix" values="0 0 0 0 0 0 0 0 0 0 0 0 0 0 0 0 0 0 127 0" result="hardAlpha"/>
<feOffset dy="3"/>
<feGaussianBlur stdDeviation="2"/>
<feComposite in2="hardAlpha" operator="out"/>
<feColorMatrix type="matrix" values="0 0 0 0 0 0 0 0 0 0 0 0 0 0 0 0 0 0 0.05 0"/>
<feBlend mode="normal" in2="BackgroundImageFix" result="effect1_dropShadow_658_1375"/>
<feBlend mode="normal" in="SourceGraphic" in2="effect1_dropShadow_658_1375" result="shape"/>
</filter>
<linearGradient id="paint0_linear_658_1375" x1="26.4997" y1="3.1748" x2="26.4997" y2="37.8252" gradientUnits="userSpaceOnUse">
<stop stop-color="#FFCF99"/>
<stop offset="0.326923" stop-color="#FF8C49"/>
<stop offset="0.692308" stop-color="#FFAE5F"/>
<stop offset="1" stop-color="#FFC859"/>
</linearGradient>
<linearGradient id="paint1_linear_658_1375" x1="26.4888" y1="18.977" x2="26.4888" y2="28.0671" gradientUnits="userSpaceOnUse">
<stop stop-color="#FFF1D1"/>
<stop offset="1" stop-color="#FFE8A3"/>
</linearGradient>
</defs>
</svg>
