<svg width="127" height="18" viewBox="0 0 127 18" fill="none" xmlns="http://www.w3.org/2000/svg">
<path d="M10.74 1.14H14.6C15.24 1.14 15.72 1.62 15.72 2.26V15.68C15.72 16.32 15.24 16.8 14.6 16.8H10.74C10.1 16.8 9.62 16.32 9.62 15.68V10.22H6.98V15.68C6.98 16.32 6.5 16.8 5.86 16.8H2C1.36 16.8 0.88 16.32 0.88 15.68V2.26C0.88 1.62 1.36 1.14 2 1.14H5.86C6.5 1.14 6.98 1.62 6.98 2.26V7.74H9.62V2.26C9.62 1.62 10.1 1.14 10.74 1.14ZM21.0439 4.92H27.0639C31.2239 4.92 32.8639 6.28 32.8639 10.14V14.76C32.8639 15.94 32.0039 16.8 30.8239 16.8H22.9439C20.5239 16.8 19.0239 15.62 19.0239 13.64C19.0239 11.6 20.4039 10.48 22.9439 10.48H26.9239V10.32C26.9239 9.8 26.5039 9.52 25.7039 9.52H21.0439C20.5239 9.52 20.1239 9.12 20.1239 8.6V5.84C20.1239 5.32 20.5239 4.92 21.0439 4.92ZM26.0039 14.5H26.5239C26.7439 14.5 26.9239 14.32 26.9239 14.1V12.7H26.0039C25.3839 12.7 25.0039 13.04 25.0039 13.6C25.0039 14.16 25.3839 14.5 26.0039 14.5ZM37.3802 1.14H41.4802C42.0002 1.14 42.4002 1.54 42.4002 2.06V4.92H44.3602C48.2202 4.92 50.4002 6.8 50.5202 10.24V11.64C50.4202 14.86 48.0802 16.8 44.3602 16.8H38.6002C37.3602 16.8 36.4602 15.9 36.4602 14.66V2.06C36.4602 1.54 36.8602 1.14 37.3802 1.14ZM42.4002 10.62V14.5H43.2602C43.9602 14.5 44.4202 14 44.4402 13.24C44.4602 12.72 44.4602 12.1 44.4402 11.58C44.4202 10.82 43.9602 10.32 43.2602 10.32H42.7002C42.5402 10.32 42.4002 10.46 42.4002 10.62ZM58.9489 4.02H54.8489C54.3289 4.02 53.9289 3.62 53.9289 3.1V2.06C53.9289 1.54 54.3289 1.14 54.8489 1.14H58.9489C59.4689 1.14 59.8689 1.54 59.8689 2.06V3.1C59.8689 3.62 59.4689 4.02 58.9489 4.02ZM58.9489 16.8H54.8489C54.3289 16.8 53.9289 16.4 53.9289 15.88V5.84C53.9289 5.32 54.3289 4.92 54.8489 4.92H58.9489C59.4689 4.92 59.8689 5.32 59.8689 5.84V15.88C59.8689 16.4 59.4689 16.8 58.9489 16.8ZM78.008 11.2C78.008 11.4 78.028 12 77.988 12.42C77.668 15.58 75.168 17.2 70.668 17.2C66.108 17.2 63.628 15.16 63.388 11.22C63.328 9.84 63.328 8.14 63.388 6.76C63.648 2.94 66.268 0.74 70.668 0.74C75.128 0.74 77.788 2.94 77.968 6.76C77.988 7.2 78.008 7.72 77.988 8.2C77.968 8.82 77.588 9.28 76.968 9.28H72.628C72.108 9.28 71.728 8.9 71.728 8.38C71.708 8.2 71.708 7.96 71.708 7.84C71.708 6.88 71.328 6.34 70.668 6.34C70.008 6.34 69.628 6.88 69.628 7.84C69.608 9.54 69.608 11.52 69.628 13.22C69.628 14.18 70.048 14.72 70.788 14.72C71.488 14.72 71.868 14.18 71.908 13.22C71.908 13.02 71.928 12.82 71.928 12.58H71.268C70.948 12.58 70.708 12.34 70.708 12.02V10.84C70.708 10.52 70.948 10.28 71.268 10.28H76.948C77.588 10.28 77.988 10.66 78.008 11.2ZM86.4059 16.8H82.3059C81.7859 16.8 81.3859 16.4 81.3859 15.88V2.06C81.3859 1.54 81.7859 1.14 82.3059 1.14H86.4059C86.9259 1.14 87.3259 1.54 87.3259 2.06V15.88C87.3259 16.4 86.9259 16.8 86.4059 16.8ZM97.925 17.2C93.445 17.2 90.885 15.2 90.745 11.58C90.725 11.14 90.725 10.62 90.745 10.18C90.865 6.68 93.605 4.52 97.925 4.52C102.245 4.52 104.985 6.68 105.105 10.18C105.125 10.62 105.125 11.14 105.105 11.58C104.965 15.2 102.405 17.2 97.925 17.2ZM97.925 14.9C98.625 14.9 99.025 14.46 99.025 13.64C99.045 12.88 99.045 11.94 99.025 11.18C99.025 10.36 98.625 9.92 97.925 9.92C97.225 9.92 96.825 10.36 96.825 11.18C96.805 11.94 96.805 12.88 96.825 13.64C96.825 14.46 97.225 14.9 97.925 14.9ZM117.315 4.74C118.695 4.74 119.455 5.58 119.555 7.04L119.855 11.08C119.895 11.5 120.175 11.5 120.215 11.08L120.695 5.76C120.755 5.2 121.075 4.92 121.655 4.92H125.815C126.395 4.92 126.735 5.28 126.655 5.88L125.375 15.4C125.255 16.26 124.575 16.8 123.735 16.8H119.575C118.655 16.8 117.955 16.14 117.895 15.24L117.535 9.78C117.515 9.44 117.115 9.44 117.095 9.76L116.735 15.24C116.675 16.14 115.975 16.8 115.055 16.8H110.875C110.015 16.8 109.355 16.24 109.255 15.42L107.995 5.88C107.915 5.28 108.175 4.92 108.815 4.92H112.975C113.515 4.92 113.895 5.22 113.935 5.76L114.415 11.08C114.455 11.52 114.735 11.52 114.775 11.08L115.075 7.04C115.175 5.56 115.935 4.72 117.315 4.74Z" fill="#5F5548"/>
</svg>
