<svg width="70" height="72" viewBox="0 0 70 72" fill="none" xmlns="http://www.w3.org/2000/svg">
<g clip-path="url(#clip0_563_3225)">
<path d="M9.85054 44.7923C12.0953 36.6237 16.3979 33.1942 19.3494 33.4228C22.4672 33.6722 24.9614 37.7669 25.5434 43.6076C25.7928 46.0602 27.9753 47.827 30.4279 47.5983C32.8806 47.3489 34.6681 45.1665 34.4187 42.7138C33.3794 32.3004 27.7466 25.1711 20.0769 24.5267C18.0399 24.3605 15.7328 24.693 13.4256 25.7323C14.9014 22.7184 16.5642 19.9956 17.936 17.9586C19.3078 15.9009 18.7466 13.1364 16.6889 11.7646C14.6311 10.3928 11.8667 10.954 10.4949 13.0117C4.9868 21.305 -1.14484 33.5475 1.16232 44.5429C1.57802 46.5591 3.34477 48.0348 5.4025 48.0972C5.44408 48.0972 5.48565 48.0972 5.52722 48.0972C7.54338 48.0972 9.31013 46.7461 9.82976 44.8131L9.85054 44.7923Z" fill="#FF812C"/>
<path d="M58.9651 12.6993C57.4478 10.7455 54.6418 10.413 52.688 11.9303C50.7342 13.4476 50.4016 16.2536 51.9189 18.2074C52.293 18.7063 52.6256 19.1635 52.979 19.6624C52.7503 19.6624 52.5217 19.6208 52.2723 19.6208C43.688 19.6208 36.7041 26.6046 36.7041 35.1889C36.7041 43.7732 43.688 50.7571 52.2723 50.7571C54.3092 50.7571 56.2422 50.3621 58.0298 49.6347C56.4917 52.607 54.3508 55.1427 51.8566 57.1589C41.7965 65.2859 24.8773 66.4499 13.3208 52.6277C11.7411 50.7363 8.91429 50.4869 7.02284 52.0665C5.13138 53.6462 4.88196 56.473 6.46164 58.3645C14.4432 67.9049 24.815 71.9996 34.7919 71.9996C43.1683 71.9996 51.2746 69.1104 57.4686 64.1012C70.1683 53.8541 75.5517 33.9834 58.9651 12.7201V12.6993ZM52.2723 41.7986C48.6141 41.7986 45.6418 38.8264 45.6418 35.1682C45.6418 31.51 48.6141 28.5377 52.2723 28.5377C55.9305 28.5377 58.9027 31.51 58.9027 35.1682C58.9027 38.8264 55.9305 41.7986 52.2723 41.7986Z" fill="#FF9955"/>
<path d="M17.9156 8.93744L24.463 12.6788C25.1073 13.0529 25.814 13.2192 26.5415 13.2192C27.3106 13.2192 28.0588 13.0113 28.7447 12.5956L34.4815 9.02058L40.2182 12.5956C40.8833 13.0113 41.6524 13.2192 42.4214 13.2192C43.1281 13.2192 43.8556 13.0321 44.4999 12.6788L51.0473 8.93744C53.0427 7.79425 53.7286 5.25845 52.5854 3.26307C51.4422 1.26769 48.9064 0.581775 46.911 1.72496L42.5253 4.23997L36.7055 0.602561C36.7055 0.602561 36.56 0.540205 36.4768 0.498634C36.3313 0.415494 36.2066 0.353138 36.0611 0.290782C35.9364 0.249212 35.8117 0.207641 35.687 0.166071C35.5623 0.1245 35.4168 0.08293 35.2921 0.0621448C35.1674 0.0413596 35.0219 0.0205743 34.8972 -0.000210872C34.7724 -0.000210872 34.627 -0.0209961 34.5022 -0.0209961C34.3775 -0.0209961 34.232 -0.0209961 34.1073 -0.000210872C33.9826 -0.000210872 33.8371 0.0205743 33.7124 0.0621448C33.5669 0.08293 33.4422 0.1245 33.2967 0.166071C33.172 0.207641 33.0681 0.228427 32.9433 0.290782C32.7979 0.353138 32.6524 0.415494 32.5069 0.498634C32.4445 0.540205 32.3614 0.56099 32.299 0.602561L26.4791 4.23997L22.0935 1.72496C20.0981 0.581775 17.5623 1.26769 16.4191 3.26307C15.2759 5.25845 15.9618 7.79425 17.9572 8.93744H17.9156Z" fill="#FF812C"/>
</g>
<defs>
<clipPath id="clip0_563_3225">
<rect width="68.6744" height="72" fill="white" transform="translate(0.663086)"/>
</clipPath>
</defs>
</svg>
