<svg width="34" height="37" viewBox="0 0 34 37" fill="none" xmlns="http://www.w3.org/2000/svg">
<g filter="url(#filter0_d_441_711)">
<path d="M29.2883 17.0928C29.1559 10.1752 24.9149 5.3075 22.2527 2.92335C21.081 1.87125 19.3748 1.87125 18.203 2.92335C17.2323 3.79483 16.0507 5.00045 14.9328 6.51312C14.1827 6.039 13.4669 5.64165 12.8393 5.32557C11.4715 4.63922 9.8094 4.97787 8.88768 6.13834C6.79908 8.76181 3.6907 13.8823 5.03407 19.9827C5.50964 22.1366 6.38234 23.7531 7.50509 24.9181C9.67703 27.3925 13.1874 29 17.1538 29C23.2529 29 28.2783 25.198 29.0039 20.2852C29.2049 19.3279 29.3128 18.2713 29.2883 17.0928Z" fill="url(#paint0_linear_441_711)"/>
<path d="M17.7021 2.36572C19.1587 1.05793 21.2961 1.0574 22.7529 2.36475L23.2822 2.85205C26.0116 5.44177 29.9081 10.3034 30.0381 17.0776L30.041 17.5347C30.0337 18.5884 29.9245 19.5518 29.7383 20.439C28.9215 25.7896 23.5051 29.7505 17.1533 29.7505C13.0042 29.7504 9.29276 28.0742 6.96484 25.439L6.7373 25.1929C5.69238 24.0223 4.88498 22.4911 4.40039 20.564L4.30176 20.144C2.88419 13.7067 6.16787 8.35057 8.30078 5.67139L8.41113 5.53857C9.50704 4.28131 11.3079 3.89436 12.8584 4.51318L13.1758 4.65479L13.1768 4.65576C13.6584 4.89833 14.1893 5.18662 14.7471 5.51904C15.7725 4.21262 16.8219 3.15599 17.7021 2.36572Z" stroke="#F7F7F7" stroke-width="1.5"/>
</g>
<path d="M23.5962 19.8939C23.5256 16.7403 21.2507 14.5224 19.823 13.435C19.1954 12.9546 18.2815 12.9546 17.654 13.435C17.1323 13.8324 16.4969 14.3815 15.9007 15.0714C15.4967 14.8547 15.1124 14.6741 14.779 14.5296C14.0455 14.2153 13.1552 14.3706 12.661 14.898C11.5392 16.0937 9.87618 18.4309 10.5939 21.2088C10.8489 22.1914 11.3156 22.9283 11.9197 23.4593C13.0846 24.5864 14.9672 25.3197 17.0931 25.3197C20.3643 25.3197 23.0588 23.5858 23.4471 21.3461C23.553 20.909 23.6119 20.4286 23.6001 19.8903L23.5962 19.8939Z" fill="url(#paint1_linear_441_711)"/>
<defs>
<filter id="filter0_d_441_711" x="0.207031" y="0.634277" width="33.5845" height="35.8657" filterUnits="userSpaceOnUse" color-interpolation-filters="sRGB">
<feFlood flood-opacity="0" result="BackgroundImageFix"/>
<feColorMatrix in="SourceAlpha" type="matrix" values="0 0 0 0 0 0 0 0 0 0 0 0 0 0 0 0 0 0 127 0" result="hardAlpha"/>
<feOffset dy="3"/>
<feGaussianBlur stdDeviation="1.5"/>
<feComposite in2="hardAlpha" operator="out"/>
<feColorMatrix type="matrix" values="0 0 0 0 0 0 0 0 0 0 0 0 0 0 0 0 0 0 0.1 0"/>
<feBlend mode="normal" in2="BackgroundImageFix" result="effect1_dropShadow_441_711"/>
<feBlend mode="normal" in="SourceGraphic" in2="effect1_dropShadow_441_711" result="shape"/>
</filter>
<linearGradient id="paint0_linear_441_711" x1="16.9998" y1="2.13428" x2="16.9998" y2="29" gradientUnits="userSpaceOnUse">
<stop stop-color="#FF9F68"/>
<stop offset="1" stop-color="#FF7C30"/>
</linearGradient>
<linearGradient id="paint1_linear_441_711" x1="17.0108" y1="13.0747" x2="17.0108" y2="25.3197" gradientUnits="userSpaceOnUse">
<stop stop-color="#FFE8A3"/>
<stop offset="1" stop-color="#FFD967"/>
</linearGradient>
</defs>
</svg>
