<svg width="46" height="36" viewBox="0 0 46 36" fill="none" xmlns="http://www.w3.org/2000/svg">
<path d="M35.6686 23.7244C35.5321 16.5928 31.16 11.5746 28.4155 9.1167C27.2075 8.03206 25.4485 8.03206 24.2405 9.1167C23.2397 10.0151 22.0216 11.258 20.8692 12.8175C20.0959 12.3287 19.3579 11.9191 18.7109 11.5932C17.3007 10.8856 15.5873 11.2348 14.6371 12.4311C12.4839 15.1357 9.27936 20.4146 10.6643 26.7036C11.1546 28.9241 12.0542 30.5907 13.2117 31.7917C15.4508 34.3427 19.0698 35.9999 23.1588 35.9999C29.4466 35.9999 34.6274 32.0803 35.3754 27.0155C35.5827 26.0287 35.6939 24.9394 35.6686 23.7244Z" fill="url(#paint0_linear_115_609)"/>
<path d="M29.8006 26.6122C29.7278 23.361 27.3825 21.0745 25.9107 19.9535C25.2637 19.4582 24.3216 19.4582 23.6746 19.9535C23.1368 20.3632 22.4817 20.9292 21.8671 21.6405C21.4506 21.4171 21.0544 21.2309 20.7107 21.0819C19.9545 20.7579 19.0366 20.918 18.5272 21.4618C17.3707 22.6944 15.6562 25.1039 16.3962 27.9677C16.659 28.9807 17.1402 29.7404 17.7629 30.2878C18.9639 31.4497 20.9048 32.2057 23.0964 32.2057C26.4687 32.2057 29.2466 30.4182 29.6469 28.1092C29.7561 27.6586 29.8167 27.1633 29.8046 26.6084L29.8006 26.6122Z" fill="url(#paint1_linear_115_609)"/>
<defs>
<linearGradient id="paint0_linear_115_609" x1="23.0001" y1="8.30322" x2="23.0001" y2="35.9999" gradientUnits="userSpaceOnUse">
<stop stop-color="#FF9F68"/>
<stop offset="1" stop-color="#FF7C30"/>
</linearGradient>
<linearGradient id="paint1_linear_115_609" x1="23.0115" y1="19.582" x2="23.0115" y2="32.2057" gradientUnits="userSpaceOnUse">
<stop stop-color="#FFE8A3"/>
<stop offset="1" stop-color="#FFD967"/>
</linearGradient>
</defs>
</svg>
