<svg width="46" height="44" viewBox="0 0 46 44" fill="none" xmlns="http://www.w3.org/2000/svg">
<g filter="url(#filter0_d_441_393)">
<path d="M32.5008 26.3572C32.6453 33.2375 27.9913 36.0002 23.0001 36.0002C18.0088 36.0002 13.3548 33.2375 13.4994 26.3572C13.6391 19.8278 18.0859 15.2351 20.8754 12.9831C22.104 11.9926 23.8914 11.9926 25.1199 12.9831C27.9094 15.2351 32.3611 19.8278 32.496 26.3572H32.5008Z" fill="url(#paint0_linear_441_393)"/>
<path d="M20.5479 12.2891C21.9956 11.2239 24.0006 11.2237 25.4482 12.2891L25.5908 12.3994C28.3277 14.6089 32.7683 19.1302 33.2119 25.6074H33.2354L33.251 26.3418C33.327 29.9665 32.1326 32.6039 30.1709 34.3232C28.2289 36.0253 25.6233 36.75 23 36.75C20.3767 36.75 17.7711 36.0253 15.8291 34.3232C13.8674 32.6039 12.6739 29.9657 12.75 26.3408C12.8971 19.4713 17.5647 14.6918 20.4043 12.3994L20.5479 12.2891Z" stroke="#F7F7F7" stroke-width="1.5"/>
</g>
<path d="M27.8119 28.9028C27.8851 31.8667 25.5302 33.0577 23.0057 33.0577C20.4811 33.0577 18.1262 31.8667 18.1994 28.9028C18.2688 26.0892 20.5197 24.1081 21.9342 23.1407C22.5586 22.7129 23.4605 22.7129 24.081 23.1407C25.4917 24.112 27.7425 26.0892 27.8158 28.9028H27.8119Z" fill="url(#paint1_linear_441_393)"/>
<defs>
<filter id="filter0_d_441_393" x="8.99609" y="10.7402" width="28.0078" height="32.7598" filterUnits="userSpaceOnUse" color-interpolation-filters="sRGB">
<feFlood flood-opacity="0" result="BackgroundImageFix"/>
<feColorMatrix in="SourceAlpha" type="matrix" values="0 0 0 0 0 0 0 0 0 0 0 0 0 0 0 0 0 0 127 0" result="hardAlpha"/>
<feOffset dy="3"/>
<feGaussianBlur stdDeviation="1.5"/>
<feComposite in2="hardAlpha" operator="out"/>
<feColorMatrix type="matrix" values="0 0 0 0 0 0 0 0 0 0 0 0 0 0 0 0 0 0 0.1 0"/>
<feBlend mode="normal" in2="BackgroundImageFix" result="effect1_dropShadow_441_393"/>
<feBlend mode="normal" in="SourceGraphic" in2="effect1_dropShadow_441_393" result="shape"/>
</filter>
<linearGradient id="paint0_linear_441_393" x1="23.0001" y1="12.2402" x2="23.0001" y2="36.0002" gradientUnits="userSpaceOnUse">
<stop stop-color="#FF9F68"/>
<stop offset="1" stop-color="#FF7C30"/>
</linearGradient>
<linearGradient id="paint1_linear_441_393" x1="23.0068" y1="22.8198" x2="23.0068" y2="33.0577" gradientUnits="userSpaceOnUse">
<stop stop-color="#FFE8A3"/>
<stop offset="1" stop-color="#FFD967"/>
</linearGradient>
</defs>
</svg>
