<svg width="46" height="36" viewBox="0 0 46 36" fill="none" xmlns="http://www.w3.org/2000/svg">
<path d="M33.9647 9.06279C33.0622 7.72779 31.4357 7.33293 30.096 8.12735C29.5131 8.4705 28.855 8.89827 28.164 9.40595C27.0876 7.70428 25.9547 6.34108 25.0192 5.35393C23.8723 4.14114 22.2035 4.14114 21.0565 5.35393C20.1211 6.34108 18.9882 7.70428 17.9118 9.40595C17.2207 8.89827 16.5626 8.4705 15.9798 8.12735C14.64 7.33293 13.0136 7.72779 12.1111 9.06279C10.3248 11.714 7.7723 16.5651 8.04024 22.4504C8.00733 22.7137 7.97442 22.9722 7.96502 23.2402C7.824 25.9619 8.84876 28.5332 10.682 30.6485C11.091 31.1656 11.5376 31.6075 12.0123 31.9788C14.5742 34.2164 18.1515 35.7159 22.1706 35.965C29.7059 36.4257 36.1553 32.3079 37.3821 26.5448C37.5138 26.07 37.6313 25.5717 37.73 25.0452C39.0415 18.0036 36.0048 12.0901 33.96 9.0581L33.9647 9.06279Z" fill="url(#paint0_linear_115_282)"/>
<path d="M28.9593 19.845C28.4704 19.202 27.5867 19.0102 26.8571 19.3938C26.5412 19.5592 26.184 19.7661 25.8079 20.0105C25.225 19.1907 24.6083 18.5363 24.1006 18.0587C23.4763 17.4759 22.5738 17.4759 21.9496 18.0587C21.4419 18.5326 20.8251 19.1907 20.2423 20.0105C19.8662 19.7661 19.5089 19.5592 19.1931 19.3938C18.4673 19.0102 17.5835 19.202 17.0909 19.845C16.1207 21.1199 14.7368 23.4552 14.8797 26.2907C14.8609 26.4148 14.8458 26.5426 14.8383 26.6705C14.7631 27.9792 15.3197 29.2164 16.3125 30.2355C16.5343 30.4837 16.7788 30.6981 17.0345 30.8748C18.4259 31.9503 20.3701 32.6761 22.5512 32.7927C26.6465 33.0146 30.1476 31.0327 30.8132 28.2612C30.8847 28.0318 30.9486 27.7949 31.0013 27.5392C31.7158 24.1509 30.0649 21.3041 28.9518 19.845H28.9593Z" fill="url(#paint1_linear_115_282)"/>
<defs>
<linearGradient id="paint0_linear_115_282" x1="23.0001" y1="4.44434" x2="23.0001" y2="36.0002" gradientUnits="userSpaceOnUse">
<stop stop-color="#FF9F68"/>
<stop offset="1" stop-color="#FF7C30"/>
</linearGradient>
<linearGradient id="paint1_linear_115_282" x1="23.0032" y1="17.6216" x2="23.0032" y2="32.8096" gradientUnits="userSpaceOnUse">
<stop stop-color="#FFE8A3"/>
<stop offset="1" stop-color="#FFD967"/>
</linearGradient>
</defs>
</svg>
