<svg width="46" height="44" viewBox="0 0 46 44" fill="none" xmlns="http://www.w3.org/2000/svg">
<g filter="url(#filter0_d_441_151)">
<path d="M33.4165 10.4095C32.5591 9.14125 31.014 8.76613 29.7413 9.52083C29.1875 9.84683 28.5623 10.2532 27.9059 10.7355C26.8832 9.11892 25.807 7.82388 24.9183 6.88608C23.8287 5.73394 22.2434 5.73394 21.1538 6.88608C20.2651 7.82388 19.1889 9.11892 18.1662 10.7355C17.5098 10.2532 16.8846 9.84683 16.3308 9.52083C15.0581 8.76613 13.513 9.14125 12.6556 10.4095C10.9586 12.9282 8.53373 17.5367 8.78827 23.1278C8.75701 23.3779 8.72575 23.6235 8.71682 23.878C8.58285 26.4637 9.55637 28.9064 11.298 30.9159C11.6865 31.4072 12.1107 31.8269 12.5618 32.1797C14.9956 34.3054 18.394 35.7299 22.2121 35.9666C29.3706 36.4043 35.4975 32.4923 36.6631 27.0174C36.7881 26.5664 36.8998 26.093 36.9935 25.5928C38.2395 18.9032 35.3546 13.2854 33.4121 10.405L33.4165 10.4095Z" fill="url(#paint0_linear_441_151)"/>
<path d="M23.0356 5.27197C23.9293 5.27197 24.7903 5.65893 25.4634 6.37061H25.4624C26.2545 7.20653 27.1887 8.31535 28.1069 9.67432C28.5493 9.37142 28.9712 9.10392 29.3608 8.87451C30.9945 7.90722 32.9715 8.4128 34.0376 9.98975H34.0366C36.024 12.9378 39.0291 18.7597 37.731 25.73V25.731C37.6345 26.2456 37.5193 26.7332 37.3911 27.1978C36.1119 33.1341 29.5589 37.1672 22.1665 36.7153H22.1655C18.193 36.469 14.635 34.9858 12.0688 32.7446V32.7437C11.5819 32.3587 11.1249 31.9066 10.7095 31.3813V31.3804C8.87775 29.2555 7.82723 26.6437 7.96826 23.8521H7.96729C7.97669 23.584 8.00917 23.3277 8.0376 23.1001C7.79311 17.3068 10.3018 12.5613 12.0337 9.99072L12.0347 9.98975C13.1008 8.41276 15.0777 7.90711 16.7114 8.87451L17.1558 9.14404C17.4154 9.30593 17.6856 9.48344 17.9644 9.67432C18.8825 8.3154 19.8168 7.20656 20.6089 6.37061L20.7368 6.24072C21.3891 5.61189 22.198 5.27208 23.0356 5.27197Z" stroke="#F7F7F7" stroke-width="1.5"/>
</g>
<path d="M28.6611 20.6523C28.1967 20.0414 27.3571 19.8592 26.664 20.2236C26.3639 20.3808 26.0246 20.5773 25.6673 20.8095C25.1136 20.0307 24.5276 19.4091 24.0454 18.9553C23.4523 18.4016 22.5949 18.4016 22.0019 18.9553C21.5196 19.4055 20.9337 20.0307 20.3799 20.8095C20.0227 20.5773 19.6833 20.3808 19.3832 20.2236C18.6937 19.8592 17.8541 20.0414 17.3861 20.6523C16.4644 21.8634 15.1497 24.082 15.2855 26.7757C15.2676 26.8936 15.2533 27.015 15.2462 27.1365C15.1747 28.3797 15.7035 29.5551 16.6466 30.5233C16.8574 30.759 17.0896 30.9627 17.3325 31.1306C18.6544 32.1523 20.5014 32.8418 22.5735 32.9526C26.464 33.1634 29.79 31.2806 30.4224 28.6477C30.4902 28.4297 30.551 28.2047 30.601 27.9617C31.2798 24.7429 29.7114 22.0385 28.6539 20.6523H28.6611Z" fill="url(#paint1_linear_441_151)"/>
<defs>
<filter id="filter0_d_441_151" x="4.20459" y="4.52197" width="37.5918" height="38.9775" filterUnits="userSpaceOnUse" color-interpolation-filters="sRGB">
<feFlood flood-opacity="0" result="BackgroundImageFix"/>
<feColorMatrix in="SourceAlpha" type="matrix" values="0 0 0 0 0 0 0 0 0 0 0 0 0 0 0 0 0 0 127 0" result="hardAlpha"/>
<feOffset dy="3"/>
<feGaussianBlur stdDeviation="1.5"/>
<feComposite in2="hardAlpha" operator="out"/>
<feColorMatrix type="matrix" values="0 0 0 0 0 0 0 0 0 0 0 0 0 0 0 0 0 0 0.1 0"/>
<feBlend mode="normal" in2="BackgroundImageFix" result="effect1_dropShadow_441_151"/>
<feBlend mode="normal" in="SourceGraphic" in2="effect1_dropShadow_441_151" result="shape"/>
</filter>
<linearGradient id="paint0_linear_441_151" x1="23.0002" y1="6.02197" x2="23.0002" y2="36" gradientUnits="userSpaceOnUse">
<stop stop-color="#FF9F68"/>
<stop offset="1" stop-color="#FF7C30"/>
</linearGradient>
<linearGradient id="paint1_linear_441_151" x1="23.0028" y1="18.54" x2="23.0028" y2="32.9687" gradientUnits="userSpaceOnUse">
<stop stop-color="#FFE8A3"/>
<stop offset="1" stop-color="#FFD967"/>
</linearGradient>
</defs>
</svg>
