<svg width="172" height="182" viewBox="0 0 172 182" fill="none" xmlns="http://www.w3.org/2000/svg">
<path d="M70.376 11.592V12.968H64.904V15.4H63.176V12.968H57.448V11.592H70.376ZM59.016 18.12V14.216H60.744V16.712H68.936V18.12H59.016ZM59.144 10.472V4.712H60.84V6.312H66.952V4.712H68.68V10.472H59.144ZM60.84 9.096H66.952V7.592H60.84V9.096ZM76.4281 6.504C76.4121 8.312 77.5481 10.056 79.7241 10.76L78.7961 12.136C77.2601 11.592 76.1721 10.52 75.5641 9.176C74.9401 10.664 73.8041 11.816 72.1721 12.424L71.2441 11.016C73.5321 10.248 74.6681 8.408 74.6681 6.408V5H76.4281V6.504ZM73.4841 14.728V13.352H83.1161V18.376H81.3881V14.728H73.4841ZM78.5721 8.424V7.016H81.3881V4.264H83.1161V12.648H81.3881V8.424H78.5721ZM101.813 10.76V12.136H96.2128V13.352C98.7408 13.496 100.245 14.376 100.245 15.848C100.245 17.464 98.4048 18.376 95.3488 18.376C92.2768 18.376 90.4368 17.464 90.4208 15.848C90.4368 14.376 91.9408 13.496 94.5168 13.336V12.136H88.9488V10.76H101.813ZM89.5568 8.744C92.1648 8.504 93.8608 7.432 94.1488 6.28H90.1008V4.904H100.661V6.28H96.5808C96.8528 7.448 98.5488 8.504 101.205 8.744L100.597 10.12C98.0208 9.848 96.1168 8.824 95.3648 7.384C94.5968 8.824 92.7248 9.848 90.1648 10.12L89.5568 8.744ZM92.2128 15.848C92.1968 16.616 93.3008 17.048 95.3488 17.032C97.3808 17.048 98.5008 16.616 98.5168 15.848C98.5008 15.064 97.3808 14.648 95.3488 14.632C93.3008 14.648 92.1968 15.064 92.2128 15.848ZM104.473 17.128C103.817 17.128 103.257 16.584 103.257 15.912C103.257 15.256 103.817 14.712 104.473 14.696C105.129 14.712 105.689 15.256 105.689 15.912C105.689 16.584 105.129 17.128 104.473 17.128ZM108.832 17.128C108.176 17.128 107.616 16.584 107.616 15.912C107.616 15.256 108.176 14.712 108.832 14.696C109.488 14.712 110.048 15.256 110.048 15.912C110.048 16.584 109.488 17.128 108.832 17.128Z" fill="#816E57"/>
<g filter="url(#filter0_di_277_680)">
<path d="M85.8936 46C93.9162 46.0002 101.89 51.7223 108.114 60.1572C111.592 58.8176 115.046 58.2384 118.32 58.6357V58.624C132.778 60.3648 143.42 80.9047 143.453 101.048C146.537 100.347 148.765 99.7784 150.993 99.7783C158.019 99.7783 153.908 110.511 141.362 118.513C136.7 142.308 113.656 160.379 86.1689 160.379C58.652 160.379 35.7745 142.427 31.0176 118.752C18.1761 110.727 13.9108 99.7784 21.0068 99.7783C23.3008 99.7783 25.5953 100.38 28.8242 101.109C28.8406 80.9554 39.4888 60.3777 53.958 58.6357C57.1119 58.2498 60.4335 58.7723 63.7793 60.0098C69.9913 51.6541 77.8708 46 85.8936 46Z" fill="url(#paint0_linear_277_680)"/>
</g>
<path d="M108.083 88.0294C105.842 87.8024 103.472 88.1249 101.09 88.8777C96.819 84.1463 91.3513 80.9443 85.8484 80.9443C80.3454 80.9443 74.9481 84.1105 70.689 88.794C68.3892 88.101 66.113 87.8143 63.954 88.0174C52.1152 89.1883 44.0075 105.354 47.5509 118.233C47.5978 118.389 47.6448 118.556 47.6917 118.711C47.6917 118.723 47.7034 118.747 47.7152 118.759C49.2288 133.443 65.8079 145.008 86.0478 145.008C106.288 145.008 123.008 133.335 124.404 118.556C124.439 118.448 124.474 118.329 124.498 118.221C128.041 105.342 119.934 89.1644 108.095 88.0055L108.083 88.0294Z" fill="url(#paint1_linear_277_680)"/>
<path d="M69.2433 109.991C71.2335 109.991 72.8469 108.378 72.8469 106.388C72.8469 104.398 71.2335 102.784 69.2433 102.784C67.2531 102.784 65.6396 104.398 65.6396 106.388C65.6396 108.378 67.2531 109.991 69.2433 109.991Z" fill="#231F20"/>
<path d="M101.677 109.992C103.668 109.992 105.281 108.379 105.281 106.388C105.281 104.398 103.668 102.785 101.677 102.785C99.6871 102.785 98.0737 104.398 98.0737 106.388C98.0737 108.379 99.6871 109.992 101.677 109.992Z" fill="#231F20"/>
<path d="M79.396 109.74L79.5762 109.884C82.7714 112.43 87.9607 112.43 91.1559 109.884" stroke="#231F20" stroke-width="2.40243" stroke-linecap="round" stroke-linejoin="round"/>
<ellipse cx="85.8697" cy="178.143" rx="34.1817" ry="3.0569" fill="#D8D6CF"/>
<defs>
<filter id="filter0_di_277_680" x="3.52783" y="31.9351" width="164.945" height="142.509" filterUnits="userSpaceOnUse" color-interpolation-filters="sRGB">
<feFlood flood-opacity="0" result="BackgroundImageFix"/>
<feColorMatrix in="SourceAlpha" type="matrix" values="0 0 0 0 0 0 0 0 0 0 0 0 0 0 0 0 0 0 127 0" result="hardAlpha"/>
<feOffset/>
<feGaussianBlur stdDeviation="7.03247"/>
<feComposite in2="hardAlpha" operator="out"/>
<feColorMatrix type="matrix" values="0 0 0 0 1 0 0 0 0 0.75645 0 0 0 0 0.543344 0 0 0 0.7 0"/>
<feBlend mode="normal" in2="BackgroundImageFix" result="effect1_dropShadow_277_680"/>
<feBlend mode="normal" in="SourceGraphic" in2="effect1_dropShadow_277_680" result="shape"/>
<feColorMatrix in="SourceAlpha" type="matrix" values="0 0 0 0 0 0 0 0 0 0 0 0 0 0 0 0 0 0 127 0" result="hardAlpha"/>
<feOffset dy="5.60431"/>
<feGaussianBlur stdDeviation="3.82112"/>
<feComposite in2="hardAlpha" operator="arithmetic" k2="-1" k3="1"/>
<feColorMatrix type="matrix" values="0 0 0 0 1 0 0 0 0 0.5 0 0 0 0 0 0 0 0 0.25 0"/>
<feBlend mode="normal" in2="shape" result="effect2_innerShadow_277_680"/>
</filter>
<linearGradient id="paint0_linear_277_680" x1="86.0002" y1="46" x2="86.0002" y2="160.379" gradientUnits="userSpaceOnUse">
<stop stop-color="#FFCF99"/>
<stop offset="0.326923" stop-color="#FF8C49"/>
<stop offset="0.692308" stop-color="#FFAE5F"/>
<stop offset="1" stop-color="#FFC859"/>
</linearGradient>
<linearGradient id="paint1_linear_277_680" x1="86.0244" y1="98.1631" x2="86.0244" y2="128.169" gradientUnits="userSpaceOnUse">
<stop stop-color="#FFF1D1"/>
<stop offset="1" stop-color="#FFE8A3"/>
</linearGradient>
</defs>
</svg>
