<svg width="150" height="136" viewBox="0 0 150 136" fill="none" xmlns="http://www.w3.org/2000/svg">
<g filter="url(#filter0_di_457_3438)">
<mask id="path-1-outside-1_457_3438" maskUnits="userSpaceOnUse" x="11.8018" y="12" width="126" height="106" fill="black">
<rect fill="white" x="11.8018" y="12" width="126" height="106"/>
<path d="M74.9053 15C81.9653 15 88.9839 20.0351 94.4609 27.458C97.5212 26.2792 100.56 25.7695 103.441 26.1191V26.1094C116.758 27.7126 126.397 47.4378 125.502 65.918C135.134 72.7845 138.031 81.2031 132.194 81.2031C129.78 81.2031 127.365 80.4448 123.544 79.6455C119.073 100.172 99.0144 115.653 75.1484 115.653C51.1535 115.653 31.1686 100.141 26.7344 79.5879C22.751 80.4079 20.2779 81.2031 17.8057 81.2031C11.9223 81.2028 14.9146 72.6487 24.7324 65.7529C23.9074 47.329 33.5289 27.7172 46.8027 26.1191C49.5781 25.7795 52.5011 26.2393 55.4453 27.3281C60.9117 19.9753 67.8454 15.0002 74.9053 15Z"/>
</mask>
<path d="M74.9053 15C81.9653 15 88.9839 20.0351 94.4609 27.458C97.5212 26.2792 100.56 25.7695 103.441 26.1191V26.1094C116.758 27.7126 126.397 47.4378 125.502 65.918C135.134 72.7845 138.031 81.2031 132.194 81.2031C129.78 81.2031 127.365 80.4448 123.544 79.6455C119.073 100.172 99.0144 115.653 75.1484 115.653C51.1535 115.653 31.1686 100.141 26.7344 79.5879C22.751 80.4079 20.2779 81.2031 17.8057 81.2031C11.9223 81.2028 14.9146 72.6487 24.7324 65.7529C23.9074 47.329 33.5289 27.7172 46.8027 26.1191C49.5781 25.7795 52.5011 26.2393 55.4453 27.3281C60.9117 19.9753 67.8454 15.0002 74.9053 15Z" fill="url(#paint0_linear_457_3438)"/>
<path d="M74.9053 15V12.888H74.9052L74.9053 15ZM94.4609 27.458L92.7615 28.712L93.7175 30.0076L95.2201 29.4289L94.4609 27.458ZM103.441 26.1191L103.187 28.2158L105.553 28.503V26.1191H103.441ZM103.441 26.1094L103.694 24.0125L101.329 23.7278V26.1094H103.441ZM125.502 65.918L123.392 65.8158L123.337 66.968L124.276 67.6377L125.502 65.918ZM132.194 81.2031L132.194 83.3151H132.194V81.2031ZM123.544 79.6455L123.976 77.5782L121.926 77.1494L121.48 79.196L123.544 79.6455ZM75.1484 115.653V117.765H75.1484L75.1484 115.653ZM26.7344 79.5879L28.7989 79.1425L28.3577 77.0974L26.3085 77.5193L26.7344 79.5879ZM17.8057 81.2031L17.8055 83.3151H17.8057V81.2031ZM24.7324 65.7529L25.9463 67.4812L26.8941 66.8155L26.8423 65.6585L24.7324 65.7529ZM46.8027 26.1191L47.0552 28.216L47.0593 28.2155L46.8027 26.1191ZM55.4453 27.3281L54.7127 29.309L56.1964 29.8577L57.1402 28.5882L55.4453 27.3281ZM74.9053 15V17.112C80.975 17.112 87.444 21.5054 92.7615 28.712L94.4609 27.458L96.1604 26.204C90.5237 18.5649 82.9557 12.888 74.9053 12.888V15ZM94.4609 27.458L95.2201 29.4289C98.0415 28.3421 100.728 27.9173 103.187 28.2158L103.441 26.1191L103.696 24.0225C100.393 23.6216 97.001 24.2163 93.7018 25.4872L94.4609 27.458ZM103.441 26.1191H105.553V26.1094H103.441H101.329V26.1191H103.441ZM103.441 26.1094L103.189 28.2062C108.859 28.8889 114.123 33.5147 117.937 40.6775C121.716 47.774 123.822 56.9458 123.392 65.8158L125.502 65.918L127.611 66.0202C128.077 56.41 125.812 46.4791 121.665 38.6922C117.554 30.9715 111.34 24.9331 103.694 24.0125L103.441 26.1094ZM125.502 65.918L124.276 67.6377C128.896 70.9314 131.694 74.4629 132.691 76.9276C133.21 78.2114 133.088 78.8056 133.036 78.9223C133.031 78.933 133.038 78.9359 132.99 78.961C132.913 79.0017 132.682 79.0911 132.194 79.0911V81.2031V83.3151C134.167 83.3151 136.044 82.5534 136.895 80.6385C137.641 78.9621 137.286 77.0225 136.607 75.3434C135.206 71.8821 131.739 67.771 126.728 64.1982L125.502 65.918ZM132.194 81.2031L132.194 79.0911C131.205 79.0911 130.164 78.9362 128.83 78.6568C128.162 78.5171 127.449 78.3527 126.64 78.1674C125.837 77.9836 124.953 77.7825 123.976 77.5782L123.544 79.6455L123.112 81.7128C124.046 81.9082 124.897 82.1016 125.697 82.2848C126.49 82.4664 127.249 82.6415 127.964 82.7913C129.396 83.0909 130.77 83.3151 132.194 83.3151L132.194 81.2031ZM123.544 79.6455L121.48 79.196C117.246 98.6371 98.144 113.541 75.1484 113.541L75.1484 115.653L75.1484 117.765C99.8848 117.765 120.9 101.707 125.608 80.095L123.544 79.6455ZM75.1484 115.653V113.541C52.0262 113.541 32.9986 98.6087 28.7989 79.1425L26.7344 79.5879L24.6699 80.0333C29.3386 101.673 50.2807 117.765 75.1484 117.765V115.653ZM26.7344 79.5879L26.3085 77.5193C25.2895 77.729 24.37 77.9366 23.5358 78.1273C22.6939 78.3198 21.9574 78.4906 21.2665 78.6367C19.8858 78.9286 18.82 79.0911 17.8057 79.0911V81.2031V83.3151C19.2636 83.3151 20.6704 83.0801 22.1402 82.7693C22.8746 82.6141 23.6577 82.4324 24.4771 82.2451C25.3042 82.0561 26.1875 81.8568 27.1602 81.6565L26.7344 79.5879ZM17.8057 81.2031L17.8058 79.0911C17.3137 79.0911 17.0833 79.0002 17.0084 78.9601C16.9636 78.9361 16.9698 78.9341 16.9638 78.9203C16.9086 78.7926 16.7931 78.1769 17.333 76.8704C18.3686 74.3642 21.2366 70.7892 25.9463 67.4812L24.7324 65.7529L23.5185 64.0246C18.4104 67.6124 14.8733 71.7623 13.4292 75.2572C12.7292 76.9512 12.3552 78.9051 13.0868 80.5969C13.9262 82.538 15.8151 83.315 17.8055 83.3151L17.8057 81.2031ZM24.7324 65.7529L26.8423 65.6585C26.4463 56.8145 28.5656 47.6838 32.3428 40.6225C36.1551 33.4958 41.4034 28.8964 47.0552 28.216L46.8027 26.1191L46.5503 24.0223C38.9283 24.9399 32.729 30.9454 28.6182 38.6302C24.4725 46.3803 22.1936 56.2674 22.6225 65.8474L24.7324 65.7529ZM46.8027 26.1191L47.0593 28.2155C49.4269 27.9258 52.0067 28.3082 54.7127 29.309L55.4453 27.3281L56.1779 25.3473C52.9956 24.1703 49.7292 23.6333 46.5462 24.0228L46.8027 26.1191ZM55.4453 27.3281L57.1402 28.5882C62.4476 21.4494 68.8324 17.1122 74.9053 17.112L74.9053 15L74.9052 12.888C66.8583 12.8882 59.3759 18.5013 53.7504 26.068L55.4453 27.3281Z" fill="url(#paint1_linear_457_3438)" mask="url(#path-1-outside-1_457_3438)"/>
</g>
<path d="M94.5031 51.9858C92.531 51.786 90.4453 52.0699 88.3493 52.7323C84.5909 48.5687 79.7793 45.751 74.9367 45.751C70.0942 45.751 65.3445 48.5372 61.5964 52.6587C59.5727 52.0489 57.5696 51.7965 55.6697 51.9753C45.2515 53.0057 38.1167 67.2311 41.235 78.5653C41.2763 78.702 41.3176 78.8492 41.3589 78.9858C41.3589 78.9964 41.3692 79.0174 41.3795 79.0279C42.7115 91.9496 57.3011 102.127 75.1122 102.127C92.9234 102.127 107.637 91.855 108.866 78.8491C108.897 78.7545 108.928 78.6494 108.948 78.5548C112.066 67.2206 104.932 52.9846 94.5135 51.9648L94.5031 51.9858Z" fill="url(#paint2_linear_457_3438)"/>
<path d="M60.916 76.5507C63.2278 76.5507 65.102 74.6766 65.102 72.3647C65.102 70.0528 63.2278 68.1787 60.916 68.1787C58.6041 68.1787 56.73 70.0528 56.73 72.3647C56.73 74.6766 58.6041 76.5507 60.916 76.5507Z" fill="#231F20"/>
<ellipse cx="1.30476" cy="0.812347" rx="1.30476" ry="0.812347" transform="matrix(0.756959 -0.653462 0.516981 0.855997 58.0278 71.0288)" fill="#F7F7F7"/>
<path d="M89.4588 75.5368C91.2102 75.5368 92.63 74.117 92.63 72.3655C92.63 70.6141 91.2102 69.1943 89.4588 69.1943C87.7074 69.1943 86.2876 70.6141 86.2876 72.3655C86.2876 74.117 87.7074 75.5368 89.4588 75.5368Z" fill="#231F20"/>
<path d="M89.4585 76.5512C91.7703 76.5512 93.6445 74.6771 93.6445 72.3652C93.6445 70.0533 91.7703 68.1792 89.4585 68.1792C87.1466 68.1792 85.2725 70.0533 85.2725 72.3652C85.2725 74.6771 87.1466 76.5512 89.4585 76.5512Z" fill="#231F20"/>
<ellipse cx="1.30476" cy="0.812347" rx="1.30476" ry="0.812347" transform="matrix(0.756959 -0.653462 0.516981 0.855997 86.8931 71.0288)" fill="#F7F7F7"/>
<path d="M70.0654 77.4746L70.224 77.3478C73.2334 75.6103 77.4574 75.7198 80.4141 77.3478" stroke="#231F20" stroke-width="2.11414" stroke-linecap="round" stroke-linejoin="round"/>
<path d="M93.4028 85.1516C93.4028 86.601 92.1736 87.776 90.6572 87.776C89.1409 87.776 87.9116 86.601 87.9116 85.1516C87.9116 84.1928 89.1131 81.4919 89.9265 79.7734C90.2228 79.1473 91.0916 79.1473 91.3879 79.7734C92.2013 81.4919 93.4028 84.1928 93.4028 85.1516Z" fill="#FF9955"/>
<ellipse cx="74.9829" cy="132.71" rx="34.1817" ry="3.0569" fill="#CBC9C2"/>
<defs>
<filter id="filter0_di_457_3438" x="0.311812" y="0.511031" width="149.377" height="129.631" filterUnits="userSpaceOnUse" color-interpolation-filters="sRGB">
<feFlood flood-opacity="0" result="BackgroundImageFix"/>
<feColorMatrix in="SourceAlpha" type="matrix" values="0 0 0 0 0 0 0 0 0 0 0 0 0 0 0 0 0 0 127 0" result="hardAlpha"/>
<feOffset/>
<feGaussianBlur stdDeviation="6.18858"/>
<feComposite in2="hardAlpha" operator="out"/>
<feColorMatrix type="matrix" values="0 0 0 0 1 0 0 0 0 0.75645 0 0 0 0 0.543344 0 0 0 0.7 0"/>
<feBlend mode="normal" in2="BackgroundImageFix" result="effect1_dropShadow_457_3438"/>
<feBlend mode="normal" in="SourceGraphic" in2="effect1_dropShadow_457_3438" result="shape"/>
<feColorMatrix in="SourceAlpha" type="matrix" values="0 0 0 0 0 0 0 0 0 0 0 0 0 0 0 0 0 0 127 0" result="hardAlpha"/>
<feOffset dy="4.9318"/>
<feGaussianBlur stdDeviation="3.36259"/>
<feComposite in2="hardAlpha" operator="arithmetic" k2="-1" k3="1"/>
<feColorMatrix type="matrix" values="0 0 0 0 1 0 0 0 0 0.5 0 0 0 0 0 0 0 0 0.25 0"/>
<feBlend mode="normal" in2="shape" result="effect2_innerShadow_457_3438"/>
</filter>
<linearGradient id="paint0_linear_457_3438" x1="75.0003" y1="15" x2="75.0003" y2="115.653" gradientUnits="userSpaceOnUse">
<stop stop-color="#FFCF99"/>
<stop offset="0.326923" stop-color="#FF8C49"/>
<stop offset="0.692308" stop-color="#FFAE5F"/>
<stop offset="1" stop-color="#FFC859"/>
</linearGradient>
<linearGradient id="paint1_linear_457_3438" x1="75.0003" y1="15" x2="75.0003" y2="115.653" gradientUnits="userSpaceOnUse">
<stop stop-color="#FFB673"/>
<stop offset="0.197115" stop-color="#FF8743"/>
<stop offset="0.576923" stop-color="#FFA444"/>
<stop offset="0.721154" stop-color="#FF9B43"/>
<stop offset="1" stop-color="#FFB845"/>
</linearGradient>
<linearGradient id="paint2_linear_457_3438" x1="75.0916" y1="60.9035" x2="75.0916" y2="87.309" gradientUnits="userSpaceOnUse">
<stop stop-color="#FFF1D1"/>
<stop offset="1" stop-color="#FFE8A3"/>
</linearGradient>
</defs>
</svg>
