<svg width="39" height="37" viewBox="0 0 39 37" fill="none" xmlns="http://www.w3.org/2000/svg">
<rect x="11.9546" y="17.5547" width="15.15" height="3.03" rx="1.01" transform="rotate(-90 11.9546 17.5547)" fill="#5F5548" stroke="#5F5548"/>
<rect x="17.9844" y="17.5547" width="9.09" height="3.03" rx="1.01" transform="rotate(-90 17.9844 17.5547)" fill="#5F5548" stroke="#5F5548"/>
<rect x="24.0146" y="17.5547" width="12.12" height="3.03" rx="1.01" transform="rotate(-90 24.0146 17.5547)" fill="#5F5548" stroke="#5F5548"/>
<rect x="9.90479" y="19.5747" width="19.19" height="2.02" rx="1.01" fill="#5F5548"/>
<path d="M9.02233 26.332V35.88H8.23033V30.864H6.82233V35.374H6.05233V26.53H6.82233V30.16H8.23033V26.332H9.02233ZM1.21233 33.504V27.498H4.79833V28.18H2.07033V32.8C3.39033 32.778 4.29233 32.734 5.34833 32.514L5.41433 33.218C4.28133 33.46 3.30233 33.504 1.82833 33.504H1.21233ZM13.7772 28.884C13.7662 30.633 14.9542 32.382 16.3512 33.02L15.8452 33.702C14.7562 33.163 13.8102 32.03 13.3592 30.655C12.9192 32.107 11.9732 33.317 10.8512 33.878L10.3232 33.174C11.7532 32.525 12.9302 30.699 12.9412 28.884V27.146H13.7772V28.884ZM17.4072 35.88V26.332H18.2432V35.88H17.4072ZM28.63 33.944V34.648H19.896V33.944H23.812V31.876H20.93V26.992H21.766V28.73H26.716V26.992H27.552V31.876H24.648V33.944H28.63ZM21.766 31.194H26.716V29.412H21.766V31.194ZM37.1028 30.908V31.612H30.5028V27.212H37.0148V27.916H31.3388V30.908H37.1028ZM29.4028 34.56V33.856H38.1368V34.56H29.4028Z" fill="#3A332A"/>
</svg>
