<svg width="24" height="38" viewBox="0 0 24 38" fill="none" xmlns="http://www.w3.org/2000/svg">
<path d="M3 9.5L12 2.5L21 9.5V20.5C21 21.0304 20.7893 21.5391 20.4142 21.9142C20.0391 22.2893 19.5304 22.5 19 22.5H5C4.46957 22.5 3.96086 22.2893 3.58579 21.9142C3.21071 21.5391 3 21.0304 3 20.5V9.5Z" stroke="#5F5548" stroke-width="2" stroke-linecap="round" stroke-linejoin="round"/>
<path d="M9 22.5V12.5H15V22.5" stroke="#5F5548" stroke-width="2" stroke-linecap="round" stroke-linejoin="round"/>
<path d="M15.2766 33.52V36.248H8.69858V33.52H15.2766ZM7.64258 32.772V32.112H11.5586V31.364C9.85358 31.309 8.87458 30.858 8.87458 30.022C8.87458 29.131 10.0076 28.68 11.9766 28.68C13.9566 28.68 15.0786 29.131 15.0786 30.022C15.0786 30.858 14.1106 31.309 12.3946 31.364V32.112H16.3326V32.772H7.64258ZM8.08258 28.284V27.624H11.5586V26.678H12.3946V27.624H15.8266V28.284H8.08258ZM9.53458 35.588H14.4406V34.18H9.53458V35.588ZM9.77658 30.022C9.77658 30.506 10.5796 30.781 11.9766 30.792C13.3846 30.781 14.1876 30.506 14.1766 30.022C14.1876 29.527 13.3846 29.274 11.9766 29.274C10.5796 29.274 9.77658 29.527 9.77658 30.022Z" fill="#3A332A"/>
</svg>
