<svg width="24" height="38" viewBox="0 0 24 38" fill="none" xmlns="http://www.w3.org/2000/svg">
<path d="M20 21.5V19.5C20 18.4391 19.5786 17.4217 18.8284 16.6716C18.0783 15.9214 17.0609 15.5 16 15.5H8C6.93913 15.5 5.92172 15.9214 5.17157 16.6716C4.42143 17.4217 4 18.4391 4 19.5V21.5" fill="#5F5548"/>
<path d="M20 21.5V19.5C20 18.4391 19.5786 17.4217 18.8284 16.6716C18.0783 15.9214 17.0609 15.5 16 15.5H8C6.93913 15.5 5.92172 15.9214 5.17157 16.6716C4.42143 17.4217 4 18.4391 4 19.5V21.5H20Z" stroke="#5F5548" stroke-width="2" stroke-linecap="round" stroke-linejoin="round"/>
<path d="M12 11.5C14.2091 11.5 16 9.70914 16 7.5C16 5.29086 14.2091 3.5 12 3.5C9.79086 3.5 8 5.29086 8 7.5C8 9.70914 9.79086 11.5 12 11.5Z" fill="#5F5548" stroke="#5F5548" stroke-width="2" stroke-linecap="round" stroke-linejoin="round"/>
<path d="M4.68857 27.712H5.85457L8.47257 34.114H8.56057L11.1786 27.712H12.3446V35.5H11.4426V29.626H11.3546L8.93457 35.5H8.07657L5.67857 29.626H5.59057V35.5H4.68857V27.712ZM13.3958 27.712H14.4958L16.6298 31.342H16.7398L18.8738 27.712H19.9738L17.1798 32.31V35.5H16.1898V32.31L13.3958 27.712Z" fill="#3A332A"/>
</svg>
