<svg width="24" height="38" viewBox="0 0 24 38" fill="none" xmlns="http://www.w3.org/2000/svg">
<path d="M12 2.5L15.09 8.76L22 9.77L17 14.64L18.18 21.52L12 18.27L5.82 21.52L7 14.64L2 9.77L8.91 8.76L12 2.5Z" stroke="#5F5548" stroke-width="2" stroke-linecap="round" stroke-linejoin="round"/>
<path d="M10.9852 26.832V32.728H10.1932V30.066H8.85116V32.376H8.05916V27.008H8.85116V29.384H10.1932V26.832H10.9852ZM3.30716 28.24V27.536H6.91516V30.11H4.14316V31.474C5.39716 31.463 6.35416 31.419 7.48716 31.188L7.57516 31.87C6.34316 32.112 5.33116 32.156 3.94516 32.156H3.32916V29.472H6.10116V28.24H3.30716ZM4.62716 34.62C4.61616 33.542 5.84816 32.915 7.83916 32.904C9.80816 32.915 11.0402 33.542 11.0292 34.62C11.0402 35.709 9.80816 36.347 7.83916 36.358C5.84816 36.347 4.61616 35.709 4.62716 34.62ZM5.46316 34.62C5.45216 35.291 6.36516 35.687 7.83916 35.676C9.28016 35.687 10.1932 35.291 10.1932 34.62C10.1932 33.96 9.28016 33.575 7.83916 33.564C6.36516 33.575 5.45216 33.96 5.46316 34.62ZM17.478 27.492C17.467 29.923 16.059 31.705 12.99 32.618L12.66 31.914C14.299 31.452 15.377 30.748 15.971 29.857L12.726 30.11L12.594 29.406L16.312 29.241C16.444 28.9 16.532 28.548 16.565 28.174H13.078V27.492H17.478ZM13.87 34.532C13.87 33.377 15.102 32.706 17.104 32.706C19.084 32.706 20.316 33.377 20.316 34.532C20.316 35.687 19.084 36.347 17.104 36.358C15.102 36.347 13.87 35.687 13.87 34.532ZM14.706 34.532C14.717 35.247 15.619 35.687 17.104 35.676C18.567 35.687 19.48 35.247 19.48 34.532C19.48 33.817 18.567 33.377 17.104 33.366C15.619 33.377 14.717 33.817 14.706 34.532ZM19.436 32.574V26.832H20.272V32.574H19.436Z" fill="#3A332A"/>
</svg>
